G04*
G04 #@! TF.GenerationSoftware,Altium Limited,Altium Designer,18.0.12 (696)*
G04*
G04 Layer_Color=8388736*
%FSLAX25Y25*%
%MOIN*%
G70*
G01*
G75*
%ADD16R,0.04934X0.07099*%
%ADD17R,0.03950X0.04343*%
%ADD18R,0.04737X0.06312*%
%ADD19C,0.07887*%
%ADD20C,0.00800*%
D16*
X635138Y144488D02*
D03*
Y131102D02*
D03*
X628642Y144488D02*
D03*
Y131102D02*
D03*
X538091D02*
D03*
Y144488D02*
D03*
X544587Y131102D02*
D03*
Y144488D02*
D03*
X402854D02*
D03*
Y131102D02*
D03*
X396358Y144488D02*
D03*
Y131102D02*
D03*
X305807D02*
D03*
Y144488D02*
D03*
X312303Y131102D02*
D03*
Y144488D02*
D03*
X170571D02*
D03*
Y131102D02*
D03*
X164075Y144488D02*
D03*
Y131102D02*
D03*
X73524D02*
D03*
Y144488D02*
D03*
X80020Y131102D02*
D03*
Y144488D02*
D03*
X473721D02*
D03*
Y131102D02*
D03*
X467224Y144488D02*
D03*
Y131102D02*
D03*
X234941D02*
D03*
Y144488D02*
D03*
X241437Y131102D02*
D03*
Y144488D02*
D03*
D17*
X301181Y188583D02*
D03*
Y181496D02*
D03*
X309055Y188583D02*
D03*
Y181496D02*
D03*
X541339Y188583D02*
D03*
Y181496D02*
D03*
X643701Y90158D02*
D03*
Y83071D02*
D03*
X635827Y83071D02*
D03*
Y90158D02*
D03*
X627953Y90158D02*
D03*
Y83071D02*
D03*
X620079Y90158D02*
D03*
Y83071D02*
D03*
X553150Y83071D02*
D03*
Y90158D02*
D03*
X545276Y83071D02*
D03*
Y90158D02*
D03*
X529528Y90158D02*
D03*
Y83071D02*
D03*
X537402Y90158D02*
D03*
Y83071D02*
D03*
X470472Y90158D02*
D03*
Y83071D02*
D03*
X411417Y83071D02*
D03*
Y90158D02*
D03*
X403543Y83071D02*
D03*
Y90158D02*
D03*
X395669Y90158D02*
D03*
Y83071D02*
D03*
X387795Y90158D02*
D03*
Y83071D02*
D03*
X320866Y90158D02*
D03*
Y83071D02*
D03*
X312992Y83071D02*
D03*
Y90158D02*
D03*
X305118Y90158D02*
D03*
Y83071D02*
D03*
X297244Y90158D02*
D03*
Y83071D02*
D03*
X238189Y90158D02*
D03*
Y83071D02*
D03*
X179134Y83071D02*
D03*
Y90158D02*
D03*
X171260Y83071D02*
D03*
Y90158D02*
D03*
X163386Y90158D02*
D03*
Y83071D02*
D03*
X155512Y90158D02*
D03*
Y83071D02*
D03*
X80709Y83071D02*
D03*
Y90158D02*
D03*
X72835Y90158D02*
D03*
Y83071D02*
D03*
X64961Y90158D02*
D03*
Y83071D02*
D03*
X88583Y83071D02*
D03*
Y90158D02*
D03*
X78740Y17323D02*
D03*
Y10236D02*
D03*
X114173Y17323D02*
D03*
Y10236D02*
D03*
X149606Y17323D02*
D03*
Y10236D02*
D03*
X185039Y17323D02*
D03*
Y10236D02*
D03*
X220472Y17323D02*
D03*
Y10236D02*
D03*
X255906Y17323D02*
D03*
Y10236D02*
D03*
X291339Y17323D02*
D03*
Y10236D02*
D03*
X326772Y17323D02*
D03*
Y10236D02*
D03*
X362205Y17323D02*
D03*
Y10236D02*
D03*
X397638Y17323D02*
D03*
Y10236D02*
D03*
X433071Y17323D02*
D03*
Y10236D02*
D03*
X468504Y17323D02*
D03*
Y10236D02*
D03*
X503937Y17323D02*
D03*
Y10236D02*
D03*
X539370Y17323D02*
D03*
Y10236D02*
D03*
X574803Y17323D02*
D03*
Y10236D02*
D03*
X610236Y17323D02*
D03*
Y10236D02*
D03*
X639764Y181496D02*
D03*
Y188583D02*
D03*
X624016Y181496D02*
D03*
Y188583D02*
D03*
X549213Y181496D02*
D03*
Y188583D02*
D03*
X533464Y181496D02*
D03*
Y188583D02*
D03*
X470472Y181496D02*
D03*
Y188583D02*
D03*
X478346Y181496D02*
D03*
Y188583D02*
D03*
X462598Y181496D02*
D03*
Y188583D02*
D03*
X399606Y181496D02*
D03*
Y188583D02*
D03*
X407480Y181496D02*
D03*
Y188583D02*
D03*
X391732Y181496D02*
D03*
Y188583D02*
D03*
X316929Y181496D02*
D03*
Y188583D02*
D03*
X238189Y181496D02*
D03*
Y188583D02*
D03*
X246063Y181496D02*
D03*
Y188583D02*
D03*
X230315Y181496D02*
D03*
Y188583D02*
D03*
X167323Y181496D02*
D03*
Y188583D02*
D03*
X175197Y181496D02*
D03*
Y188583D02*
D03*
X159449Y181496D02*
D03*
Y188583D02*
D03*
X76772Y181496D02*
D03*
Y188583D02*
D03*
X84646Y181496D02*
D03*
Y188583D02*
D03*
X68898Y181496D02*
D03*
Y188583D02*
D03*
X631890Y181496D02*
D03*
Y188583D02*
D03*
D18*
X653543Y82284D02*
D03*
X661417D02*
D03*
X657480Y90945D02*
D03*
X602362Y82284D02*
D03*
X610236D02*
D03*
X606299Y90945D02*
D03*
X562992Y82284D02*
D03*
X570866D02*
D03*
X566929Y90945D02*
D03*
X511811Y82284D02*
D03*
X519685D02*
D03*
X515748Y90945D02*
D03*
X421260Y82284D02*
D03*
X429134D02*
D03*
X425197Y90945D02*
D03*
X370079Y82284D02*
D03*
X377953D02*
D03*
X374016Y90945D02*
D03*
X330709Y82284D02*
D03*
X338583D02*
D03*
X334646Y90945D02*
D03*
X279528Y82284D02*
D03*
X287402D02*
D03*
X283465Y90945D02*
D03*
X188976Y82284D02*
D03*
X196850D02*
D03*
X192913Y90945D02*
D03*
X137795Y82284D02*
D03*
X145669D02*
D03*
X141732Y90945D02*
D03*
X98425Y82284D02*
D03*
X106299D02*
D03*
X102362Y90945D02*
D03*
X47244Y82284D02*
D03*
X55118D02*
D03*
X51181Y90945D02*
D03*
X92520Y9449D02*
D03*
X100394D02*
D03*
X96457Y18110D02*
D03*
X127953Y9449D02*
D03*
X135827D02*
D03*
X131890Y18110D02*
D03*
X163386Y9449D02*
D03*
X171260D02*
D03*
X167323Y18110D02*
D03*
X198819Y9449D02*
D03*
X206693D02*
D03*
X202756Y18110D02*
D03*
X234252Y9449D02*
D03*
X242126D02*
D03*
X238189Y18110D02*
D03*
X269685Y9449D02*
D03*
X277559D02*
D03*
X273622Y18110D02*
D03*
X305118Y9449D02*
D03*
X312992D02*
D03*
X309055Y18110D02*
D03*
X340551Y9449D02*
D03*
X348425D02*
D03*
X344488Y18110D02*
D03*
X375984Y9449D02*
D03*
X383858D02*
D03*
X379921Y18110D02*
D03*
X411417Y9449D02*
D03*
X419291D02*
D03*
X415354Y18110D02*
D03*
X446850Y9449D02*
D03*
X454724D02*
D03*
X450787Y18110D02*
D03*
X482283Y9449D02*
D03*
X490158D02*
D03*
X486221Y18110D02*
D03*
X517717Y9449D02*
D03*
X525591D02*
D03*
X521654Y18110D02*
D03*
X553150Y9449D02*
D03*
X561024D02*
D03*
X557087Y18110D02*
D03*
X588583Y9449D02*
D03*
X596457D02*
D03*
X592520Y18110D02*
D03*
X624016Y9449D02*
D03*
X631890D02*
D03*
X627953Y18110D02*
D03*
D19*
X248189Y137795D02*
D03*
X228189D02*
D03*
X460472D02*
D03*
X480472D02*
D03*
X631890Y160433D02*
D03*
X642410Y157840D02*
D03*
X650520Y150655D02*
D03*
X654362Y140524D02*
D03*
X653057Y129768D02*
D03*
X646902Y120851D02*
D03*
X637308Y115815D02*
D03*
X626473Y115815D02*
D03*
X616879Y120850D02*
D03*
X610723Y129767D02*
D03*
X609417Y140523D02*
D03*
X613258Y150654D02*
D03*
X621368Y157839D02*
D03*
X530817D02*
D03*
X522707Y150654D02*
D03*
X518866Y140523D02*
D03*
X520172Y129767D02*
D03*
X526328Y120850D02*
D03*
X535922Y115815D02*
D03*
X546757Y115815D02*
D03*
X556351Y120851D02*
D03*
X562505Y129768D02*
D03*
X563811Y140524D02*
D03*
X559969Y150655D02*
D03*
X551859Y157840D02*
D03*
X541339Y160433D02*
D03*
X399606D02*
D03*
X410126Y157840D02*
D03*
X418237Y150655D02*
D03*
X422079Y140524D02*
D03*
X420773Y129768D02*
D03*
X414618Y120851D02*
D03*
X405025Y115815D02*
D03*
X394190Y115815D02*
D03*
X384595Y120850D02*
D03*
X378440Y129767D02*
D03*
X377133Y140523D02*
D03*
X380975Y150654D02*
D03*
X389085Y157839D02*
D03*
X298534D02*
D03*
X290424Y150654D02*
D03*
X286582Y140523D02*
D03*
X287889Y129767D02*
D03*
X294044Y120850D02*
D03*
X303638Y115815D02*
D03*
X314473Y115815D02*
D03*
X324067Y120851D02*
D03*
X330222Y129768D02*
D03*
X331528Y140524D02*
D03*
X327685Y150655D02*
D03*
X319575Y157840D02*
D03*
X309055Y160433D02*
D03*
X167323D02*
D03*
X177843Y157840D02*
D03*
X185953Y150655D02*
D03*
X189795Y140524D02*
D03*
X188490Y129768D02*
D03*
X182335Y120851D02*
D03*
X172741Y115815D02*
D03*
X161906Y115815D02*
D03*
X152312Y120850D02*
D03*
X146157Y129767D02*
D03*
X144850Y140523D02*
D03*
X148691Y150654D02*
D03*
X156801Y157839D02*
D03*
X66250D02*
D03*
X58140Y150654D02*
D03*
X54299Y140523D02*
D03*
X55605Y129767D02*
D03*
X61761Y120850D02*
D03*
X71355Y115815D02*
D03*
X82190Y115815D02*
D03*
X91784Y120851D02*
D03*
X97939Y129768D02*
D03*
X99244Y140524D02*
D03*
X95402Y150655D02*
D03*
X87292Y157840D02*
D03*
X76772Y160433D02*
D03*
X24685Y143425D02*
D03*
Y133425D02*
D03*
Y123425D02*
D03*
Y113425D02*
D03*
Y103425D02*
D03*
Y93425D02*
D03*
Y83425D02*
D03*
Y73425D02*
D03*
Y63425D02*
D03*
Y53425D02*
D03*
X14685Y143425D02*
D03*
Y133425D02*
D03*
Y123425D02*
D03*
Y113425D02*
D03*
Y103425D02*
D03*
Y93425D02*
D03*
Y83425D02*
D03*
Y73425D02*
D03*
Y63425D02*
D03*
Y53425D02*
D03*
X683976D02*
D03*
Y63425D02*
D03*
Y73425D02*
D03*
Y83425D02*
D03*
Y93425D02*
D03*
Y103425D02*
D03*
Y113425D02*
D03*
Y123425D02*
D03*
Y133425D02*
D03*
Y143425D02*
D03*
X693976Y53425D02*
D03*
Y63425D02*
D03*
Y73425D02*
D03*
Y83425D02*
D03*
Y93425D02*
D03*
Y103425D02*
D03*
Y113425D02*
D03*
Y123425D02*
D03*
Y133425D02*
D03*
Y143425D02*
D03*
D20*
X688976Y177165D02*
D03*
Y19685D02*
D03*
X19685Y177165D02*
D03*
Y19685D02*
D03*
M02*
