G04*
G04 #@! TF.GenerationSoftware,Altium Limited,Altium Designer,18.0.12 (696)*
G04*
G04 Layer_Color=16711935*
%FSLAX25Y25*%
%MOIN*%
G70*
G01*
G75*
%ADD19C,0.07887*%
%ADD20C,0.00800*%
D19*
X248189Y137795D02*
D03*
X228189D02*
D03*
X460472D02*
D03*
X480472D02*
D03*
X631890Y160433D02*
D03*
X642410Y157840D02*
D03*
X650520Y150655D02*
D03*
X654362Y140524D02*
D03*
X653057Y129768D02*
D03*
X646902Y120851D02*
D03*
X637308Y115815D02*
D03*
X626473Y115815D02*
D03*
X616879Y120850D02*
D03*
X610723Y129767D02*
D03*
X609417Y140523D02*
D03*
X613258Y150654D02*
D03*
X621368Y157839D02*
D03*
X530817D02*
D03*
X522707Y150654D02*
D03*
X518866Y140523D02*
D03*
X520172Y129767D02*
D03*
X526328Y120850D02*
D03*
X535922Y115815D02*
D03*
X546757Y115815D02*
D03*
X556351Y120851D02*
D03*
X562505Y129768D02*
D03*
X563811Y140524D02*
D03*
X559969Y150655D02*
D03*
X551859Y157840D02*
D03*
X541339Y160433D02*
D03*
X399606D02*
D03*
X410126Y157840D02*
D03*
X418237Y150655D02*
D03*
X422079Y140524D02*
D03*
X420773Y129768D02*
D03*
X414618Y120851D02*
D03*
X405025Y115815D02*
D03*
X394190Y115815D02*
D03*
X384595Y120850D02*
D03*
X378440Y129767D02*
D03*
X377133Y140523D02*
D03*
X380975Y150654D02*
D03*
X389085Y157839D02*
D03*
X298534D02*
D03*
X290424Y150654D02*
D03*
X286582Y140523D02*
D03*
X287889Y129767D02*
D03*
X294044Y120850D02*
D03*
X303638Y115815D02*
D03*
X314473Y115815D02*
D03*
X324067Y120851D02*
D03*
X330222Y129768D02*
D03*
X331528Y140524D02*
D03*
X327685Y150655D02*
D03*
X319575Y157840D02*
D03*
X309055Y160433D02*
D03*
X167323D02*
D03*
X177843Y157840D02*
D03*
X185953Y150655D02*
D03*
X189795Y140524D02*
D03*
X188490Y129768D02*
D03*
X182335Y120851D02*
D03*
X172741Y115815D02*
D03*
X161906Y115815D02*
D03*
X152312Y120850D02*
D03*
X146157Y129767D02*
D03*
X144850Y140523D02*
D03*
X148691Y150654D02*
D03*
X156801Y157839D02*
D03*
X66250D02*
D03*
X58140Y150654D02*
D03*
X54299Y140523D02*
D03*
X55605Y129767D02*
D03*
X61761Y120850D02*
D03*
X71355Y115815D02*
D03*
X82190Y115815D02*
D03*
X91784Y120851D02*
D03*
X97939Y129768D02*
D03*
X99244Y140524D02*
D03*
X95402Y150655D02*
D03*
X87292Y157840D02*
D03*
X76772Y160433D02*
D03*
X24685Y143425D02*
D03*
Y133425D02*
D03*
Y123425D02*
D03*
Y113425D02*
D03*
Y103425D02*
D03*
Y93425D02*
D03*
Y83425D02*
D03*
Y73425D02*
D03*
Y63425D02*
D03*
Y53425D02*
D03*
X14685Y143425D02*
D03*
Y133425D02*
D03*
Y123425D02*
D03*
Y113425D02*
D03*
Y103425D02*
D03*
Y93425D02*
D03*
Y83425D02*
D03*
Y73425D02*
D03*
Y63425D02*
D03*
Y53425D02*
D03*
X683976D02*
D03*
Y63425D02*
D03*
Y73425D02*
D03*
Y83425D02*
D03*
Y93425D02*
D03*
Y103425D02*
D03*
Y113425D02*
D03*
Y123425D02*
D03*
Y133425D02*
D03*
Y143425D02*
D03*
X693976Y53425D02*
D03*
Y63425D02*
D03*
Y73425D02*
D03*
Y83425D02*
D03*
Y93425D02*
D03*
Y103425D02*
D03*
Y113425D02*
D03*
Y123425D02*
D03*
Y133425D02*
D03*
Y143425D02*
D03*
D20*
X688976Y177165D02*
D03*
Y19685D02*
D03*
X19685Y177165D02*
D03*
Y19685D02*
D03*
M02*
