M48
;Layer_Color=9474304
;FILE_FORMAT=2:4
INCH,TZ
;TYPE=PLATED
T1F00S00C0.0120
T2F00S00C0.0394
T3F00S00C0.0402
;TYPE=NON_PLATED
T4F00S00C0.1181
%
T01
X64449Y551
X64685Y984
X7874Y2126
X7159Y4685
X6142Y4252
X5551Y3819
X4961Y3386
X4724Y2953
X4409Y2520
X8195Y5118
X9213Y5551
X9803Y5984
X10394Y6417
X10669Y6850
X8858Y9409
Y10866
X6506Y9469
X5945Y9252
X5945Y8386
X4094Y12362
X3780Y13307
X6063Y16260
X7362Y15197
X7992
X11299Y16260
X12874Y16791
X15079Y16102
X15945Y16732
X16417Y15118
X17047Y15157
X17913Y10630
Y9409
X15551
X15039Y9094
Y8268
X12126Y9291
X11063Y7283
X10984Y2283
X11417Y2087
X12874Y2283
X13583
X13602Y2717
X13858Y3150
X14134Y3583
X14606Y4016
X15197Y4449
X16220Y4882
X17244Y5315
X18268Y5748
X18858Y6181
X19331Y6614
X19606Y7047
X19882Y7480
X20276
X21772Y9094
X23819Y9409
Y7047
Y2283
X25591Y2126
X22047Y2087
X20276Y2283
X18504Y2087
X14961Y2047
X22126Y12638
X23504Y15197
X24134Y15236
X23031Y16732
X24843Y11142
X29213Y9173
X29724Y9409
X29213Y8189
X27362Y6614
X28268Y3583
X27913Y3150
X27598Y2717
X27362Y2283
X29134Y2126
X30906Y2283
X32677Y2126
X34449Y2283
X36220Y2126
X36772Y2717
X37008Y3150
X37323Y3583
X37638Y4016
X38504Y4449
X37992Y5315
X39449Y4911
X40502Y5335
X41457Y5748
X41535Y4882
X42087Y6181
X41142Y9370
Y10157
X38780Y9449
X38228Y8976
Y8150
X35394Y8976
X34213Y7480
X33858Y7047
X33543Y6614
X33031Y6181
X32402Y5748
X31417Y5315
X30906Y6181
X30394Y4882
X29428Y4467
X28779Y4016
X34449Y5748
X32087Y9409
Y10394
X31220Y15197
X30591
X30118Y16732
X29173Y16063
X38268Y16142
X39173Y16732
X39646Y15197
X40276
X39764Y2126
X41535Y2283
X37992
X43307Y2126
X45079Y2283
X46850Y2126
X48622Y2283
Y4016
X51457Y3583
X52165
X52008Y4016
X52559Y4449
X53622Y4882
X54646Y5315
X55630Y5748
X56260Y6181
X56732Y6614
X57087Y7047
X57480Y7480
X55315Y9409
Y9921
X52953Y9449
X52441Y9094
Y8110
X52165Y2283
X50827Y2717
X51181Y3150
X50394Y2126
X53937
X55709Y2283
Y3150
X56772Y2047
X57480Y2126
X45079Y4449
X42598Y6614
X42913Y7047
X43228Y7480
X44921Y9055
X47047Y9370
X48047Y11472
X45394Y12756
X46732Y15197
X47362
X46260Y16732
X52362Y16220
X53346Y16732
X53819Y15118
X54449
X61457Y16102
X62402Y16578
X62874Y15236
X63543
X63189Y11102
X62008Y9449
X61417Y9134
Y8228
X58701Y8898
X60354Y3386
X60000Y2953
X59646Y2520
X61024Y2126
X61063Y3819
X61674Y4310
X62598Y4685
X63732Y5118
X64685Y5551
X65315Y5984
X65669Y6417
X65945Y6850
X66220Y7283
X64291Y3976
X64961Y1496
X62795Y2283
X63189Y16968
Y17717
X62402
X62401Y19252
X63189
X63976
X54921
X54134
X53346
X53346Y17756
X54134
Y17205
X47047
Y17756
X46260
X46260Y19252
X47047Y19252
X47835
X40748
X39961
X39173Y19252
X39173Y17756
X39961
Y17205
X30906
Y17756
X30118
Y19252
X30906
X31693
X24606
X23819
X23031
Y17756
X23819
Y17205
X16732
Y17756
X15945
X15945Y19252
X16732Y19252
X17520
X13189Y17244
X8465Y19252
X7677
X6890
T02
X6176Y12085
X7135Y11582
X8219Y11582
X9178Y12085
X9794Y12977
X9924Y14052
X9540Y15066
X8729Y15784
X7677Y16043
X6625Y15784
X5814Y15065
X5430Y14052
X5561Y12977
X14616
X14485Y14052
X14869Y15065
X15680Y15784
X16732Y16043
X17784Y15784
X18595Y15066
X18980Y14052
X18849Y12977
X18233Y12085
X17274Y11582
X16191Y11582
X15231Y12085
X29404
X30364Y11582
X31447Y11582
X32407Y12085
X33022Y12977
X33153Y14052
X32769Y15066
X31958Y15784
X30906Y16043
X29853Y15784
X29042Y15065
X28658Y14052
X28789Y12977
X37844
X37713Y14052
X38098Y15065
X38908Y15784
X39961Y16043
X41013Y15784
X41824Y15066
X42077Y12977
X41462Y12085
X40502Y11582
X39419Y11582
X38460Y12085
X42208Y14052
X51887Y14052
X52017Y12977
X52633Y12085
X53592Y11582
X54676Y11582
X55635Y12085
X56251Y12977
X56381Y14052
X55997Y15066
X55186Y15784
X54134Y16043
X53082Y15784
X52271Y15065
X61326
X60942Y14052
X61072Y12977
X61688Y12085
X62647Y11582
X63731Y11582
X64690Y12085
X65306Y12977
X65436Y14052
X65052Y15066
X64241Y15784
X63189Y16043
X62137Y15784
T03
X1469Y5343
X2468
Y6343
Y7343
Y8343
Y9343
Y10343
Y11343
Y12343
Y13343
Y14343
X1469
Y13343
Y12343
Y11343
Y10343
Y9343
Y8343
Y7343
Y6343
X22819Y13780
X24819
X46047
X48047
X68398Y13343
Y12343
Y11343
Y10343
Y9343
Y8343
Y7343
Y6343
Y5343
X69398
Y6343
Y7343
Y8343
Y9343
Y10343
Y11343
Y12343
Y13343
Y14343
X68398
T04
X1969Y1969
X68898
Y17717
X1969
M30
