G04*
G04 #@! TF.GenerationSoftware,Altium Limited,Altium Designer,18.0.12 (696)*
G04*
G04 Layer_Color=8421504*
%FSLAX25Y25*%
%MOIN*%
G70*
G01*
G75*
%ADD13R,0.04134X0.06299*%
%ADD14R,0.03150X0.03543*%
%ADD15R,0.03937X0.05512*%
D13*
X635138Y144488D02*
D03*
Y131102D02*
D03*
X628642Y144488D02*
D03*
Y131102D02*
D03*
X538091D02*
D03*
Y144488D02*
D03*
X544587Y131102D02*
D03*
Y144488D02*
D03*
X402854D02*
D03*
Y131102D02*
D03*
X396358Y144488D02*
D03*
Y131102D02*
D03*
X305807D02*
D03*
Y144488D02*
D03*
X312303Y131102D02*
D03*
Y144488D02*
D03*
X170571D02*
D03*
Y131102D02*
D03*
X164075Y144488D02*
D03*
Y131102D02*
D03*
X73524D02*
D03*
Y144488D02*
D03*
X80020Y131102D02*
D03*
Y144488D02*
D03*
X473721D02*
D03*
Y131102D02*
D03*
X467224Y144488D02*
D03*
Y131102D02*
D03*
X234941D02*
D03*
Y144488D02*
D03*
X241437Y131102D02*
D03*
Y144488D02*
D03*
D14*
X301181Y188583D02*
D03*
Y181496D02*
D03*
X309055Y188583D02*
D03*
Y181496D02*
D03*
X541339Y188583D02*
D03*
Y181496D02*
D03*
X643701Y90158D02*
D03*
Y83071D02*
D03*
X635827Y83071D02*
D03*
Y90158D02*
D03*
X627953Y90158D02*
D03*
Y83071D02*
D03*
X620079Y90158D02*
D03*
Y83071D02*
D03*
X553150Y83071D02*
D03*
Y90158D02*
D03*
X545276Y83071D02*
D03*
Y90158D02*
D03*
X529528Y90158D02*
D03*
Y83071D02*
D03*
X537402Y90158D02*
D03*
Y83071D02*
D03*
X470472Y90158D02*
D03*
Y83071D02*
D03*
X411417Y83071D02*
D03*
Y90158D02*
D03*
X403543Y83071D02*
D03*
Y90158D02*
D03*
X395669Y90158D02*
D03*
Y83071D02*
D03*
X387795Y90158D02*
D03*
Y83071D02*
D03*
X320866Y90158D02*
D03*
Y83071D02*
D03*
X312992Y83071D02*
D03*
Y90158D02*
D03*
X305118Y90158D02*
D03*
Y83071D02*
D03*
X297244Y90158D02*
D03*
Y83071D02*
D03*
X238189Y90158D02*
D03*
Y83071D02*
D03*
X179134Y83071D02*
D03*
Y90158D02*
D03*
X171260Y83071D02*
D03*
Y90158D02*
D03*
X163386Y90158D02*
D03*
Y83071D02*
D03*
X155512Y90158D02*
D03*
Y83071D02*
D03*
X80709Y83071D02*
D03*
Y90158D02*
D03*
X72835Y90158D02*
D03*
Y83071D02*
D03*
X64961Y90158D02*
D03*
Y83071D02*
D03*
X88583Y83071D02*
D03*
Y90158D02*
D03*
X78740Y17323D02*
D03*
Y10236D02*
D03*
X114173Y17323D02*
D03*
Y10236D02*
D03*
X149606Y17323D02*
D03*
Y10236D02*
D03*
X185039Y17323D02*
D03*
Y10236D02*
D03*
X220472Y17323D02*
D03*
Y10236D02*
D03*
X255906Y17323D02*
D03*
Y10236D02*
D03*
X291339Y17323D02*
D03*
Y10236D02*
D03*
X326772Y17323D02*
D03*
Y10236D02*
D03*
X362205Y17323D02*
D03*
Y10236D02*
D03*
X397638Y17323D02*
D03*
Y10236D02*
D03*
X433071Y17323D02*
D03*
Y10236D02*
D03*
X468504Y17323D02*
D03*
Y10236D02*
D03*
X503937Y17323D02*
D03*
Y10236D02*
D03*
X539370Y17323D02*
D03*
Y10236D02*
D03*
X574803Y17323D02*
D03*
Y10236D02*
D03*
X610236Y17323D02*
D03*
Y10236D02*
D03*
X639764Y181496D02*
D03*
Y188583D02*
D03*
X624016Y181496D02*
D03*
Y188583D02*
D03*
X549213Y181496D02*
D03*
Y188583D02*
D03*
X533464Y181496D02*
D03*
Y188583D02*
D03*
X470472Y181496D02*
D03*
Y188583D02*
D03*
X478346Y181496D02*
D03*
Y188583D02*
D03*
X462598Y181496D02*
D03*
Y188583D02*
D03*
X399606Y181496D02*
D03*
Y188583D02*
D03*
X407480Y181496D02*
D03*
Y188583D02*
D03*
X391732Y181496D02*
D03*
Y188583D02*
D03*
X316929Y181496D02*
D03*
Y188583D02*
D03*
X238189Y181496D02*
D03*
Y188583D02*
D03*
X246063Y181496D02*
D03*
Y188583D02*
D03*
X230315Y181496D02*
D03*
Y188583D02*
D03*
X167323Y181496D02*
D03*
Y188583D02*
D03*
X175197Y181496D02*
D03*
Y188583D02*
D03*
X159449Y181496D02*
D03*
Y188583D02*
D03*
X76772Y181496D02*
D03*
Y188583D02*
D03*
X84646Y181496D02*
D03*
Y188583D02*
D03*
X68898Y181496D02*
D03*
Y188583D02*
D03*
X631890Y181496D02*
D03*
Y188583D02*
D03*
D15*
X653543Y82284D02*
D03*
X661417D02*
D03*
X657480Y90945D02*
D03*
X602362Y82284D02*
D03*
X610236D02*
D03*
X606299Y90945D02*
D03*
X562992Y82284D02*
D03*
X570866D02*
D03*
X566929Y90945D02*
D03*
X511811Y82284D02*
D03*
X519685D02*
D03*
X515748Y90945D02*
D03*
X421260Y82284D02*
D03*
X429134D02*
D03*
X425197Y90945D02*
D03*
X370079Y82284D02*
D03*
X377953D02*
D03*
X374016Y90945D02*
D03*
X330709Y82284D02*
D03*
X338583D02*
D03*
X334646Y90945D02*
D03*
X279528Y82284D02*
D03*
X287402D02*
D03*
X283465Y90945D02*
D03*
X188976Y82284D02*
D03*
X196850D02*
D03*
X192913Y90945D02*
D03*
X137795Y82284D02*
D03*
X145669D02*
D03*
X141732Y90945D02*
D03*
X98425Y82284D02*
D03*
X106299D02*
D03*
X102362Y90945D02*
D03*
X47244Y82284D02*
D03*
X55118D02*
D03*
X51181Y90945D02*
D03*
X92520Y9449D02*
D03*
X100394D02*
D03*
X96457Y18110D02*
D03*
X127953Y9449D02*
D03*
X135827D02*
D03*
X131890Y18110D02*
D03*
X163386Y9449D02*
D03*
X171260D02*
D03*
X167323Y18110D02*
D03*
X198819Y9449D02*
D03*
X206693D02*
D03*
X202756Y18110D02*
D03*
X234252Y9449D02*
D03*
X242126D02*
D03*
X238189Y18110D02*
D03*
X269685Y9449D02*
D03*
X277559D02*
D03*
X273622Y18110D02*
D03*
X305118Y9449D02*
D03*
X312992D02*
D03*
X309055Y18110D02*
D03*
X340551Y9449D02*
D03*
X348425D02*
D03*
X344488Y18110D02*
D03*
X375984Y9449D02*
D03*
X383858D02*
D03*
X379921Y18110D02*
D03*
X411417Y9449D02*
D03*
X419291D02*
D03*
X415354Y18110D02*
D03*
X446850Y9449D02*
D03*
X454724D02*
D03*
X450787Y18110D02*
D03*
X482283Y9449D02*
D03*
X490158D02*
D03*
X486221Y18110D02*
D03*
X517717Y9449D02*
D03*
X525591D02*
D03*
X521654Y18110D02*
D03*
X553150Y9449D02*
D03*
X561024D02*
D03*
X557087Y18110D02*
D03*
X588583Y9449D02*
D03*
X596457D02*
D03*
X592520Y18110D02*
D03*
X624016Y9449D02*
D03*
X631890D02*
D03*
X627953Y18110D02*
D03*
M02*
