G04*
G04 #@! TF.GenerationSoftware,Altium Limited,Altium Designer,18.0.12 (696)*
G04*
G04 Layer_Physical_Order=2*
G04 Layer_Color=16711680*
%FSLAX25Y25*%
%MOIN*%
G70*
G01*
G75*
%ADD12C,0.00600*%
%ADD13C,0.02000*%
%ADD65C,0.07087*%
%ADD66C,0.09843*%
%ADD67R,0.07087X0.07087*%
%ADD68C,0.02500*%
G36*
X705367Y3294D02*
X3294D01*
Y151002D01*
X3786Y151091D01*
X4283Y150346D01*
X5028Y149849D01*
X5906Y149674D01*
X6783Y149849D01*
X6904Y149929D01*
X36865D01*
X37017Y149429D01*
X36764Y149260D01*
X36266Y148516D01*
X36092Y147638D01*
X36266Y146760D01*
X36764Y146016D01*
X37508Y145518D01*
X38386Y145344D01*
X39264Y145518D01*
X39384Y145599D01*
X204667D01*
X205726Y144539D01*
X205755Y144398D01*
X206252Y143653D01*
X206996Y143156D01*
X207874Y142982D01*
X208752Y143156D01*
X209496Y143653D01*
X209994Y144398D01*
X210168Y145276D01*
X209994Y146153D01*
X209496Y146898D01*
X208752Y147395D01*
X208610Y147423D01*
X206954Y149080D01*
X206292Y149522D01*
X205512Y149677D01*
X149473D01*
X149322Y150177D01*
X149622Y150378D01*
X150119Y151122D01*
X150294Y152000D01*
X150119Y152878D01*
X149622Y153622D01*
X148878Y154120D01*
X148000Y154294D01*
X147122Y154120D01*
X146955Y154008D01*
X6904D01*
X6783Y154088D01*
X5906Y154263D01*
X5028Y154088D01*
X4283Y153591D01*
X3786Y152846D01*
X3294Y152935D01*
Y193556D01*
X705367D01*
Y3294D01*
D02*
G37*
%LPC*%
G36*
X457500Y191517D02*
Y187500D01*
X461517D01*
X461426Y188186D01*
X460969Y189291D01*
X460240Y190240D01*
X459291Y190969D01*
X458186Y191426D01*
X457500Y191517D01*
D02*
G37*
G36*
X456500D02*
X455814Y191426D01*
X454709Y190969D01*
X453760Y190240D01*
X453031Y189291D01*
X452574Y188186D01*
X452483Y187500D01*
X456500D01*
Y191517D01*
D02*
G37*
G36*
X461517Y186500D02*
X457500D01*
Y182483D01*
X458186Y182574D01*
X459291Y183031D01*
X460240Y183760D01*
X460969Y184709D01*
X461426Y185814D01*
X461517Y186500D01*
D02*
G37*
G36*
X456500D02*
X452483D01*
X452574Y185814D01*
X453031Y184709D01*
X453760Y183760D01*
X454709Y183031D01*
X455814Y182574D01*
X456500Y182483D01*
Y186500D01*
D02*
G37*
G36*
X140106Y181097D02*
Y175697D01*
X145507D01*
X145442Y176358D01*
X145103Y177474D01*
X144553Y178502D01*
X143814Y179404D01*
X142912Y180144D01*
X141883Y180694D01*
X140767Y181032D01*
X140106Y181097D01*
D02*
G37*
G36*
X139106D02*
X138445Y181032D01*
X137329Y180694D01*
X136301Y180144D01*
X135399Y179404D01*
X134659Y178502D01*
X134109Y177474D01*
X133771Y176358D01*
X133706Y175697D01*
X139106D01*
Y181097D01*
D02*
G37*
G36*
X383858Y178992D02*
X382672Y178836D01*
X381567Y178378D01*
X380618Y177650D01*
X379890Y176701D01*
X379432Y175595D01*
X379276Y174409D01*
X379432Y173223D01*
X379890Y172118D01*
X380618Y171169D01*
X381567Y170441D01*
X382672Y169983D01*
X383858Y169827D01*
X385044Y169983D01*
X386150Y170441D01*
X387099Y171169D01*
X387827Y172118D01*
X388285Y173223D01*
X388441Y174409D01*
X388285Y175595D01*
X387827Y176701D01*
X387099Y177650D01*
X386150Y178378D01*
X385044Y178836D01*
X383858Y178992D01*
D02*
G37*
G36*
X145507Y174697D02*
X140106D01*
Y169296D01*
X140767Y169361D01*
X141883Y169700D01*
X142912Y170250D01*
X143814Y170990D01*
X144553Y171891D01*
X145103Y172920D01*
X145442Y174036D01*
X145507Y174697D01*
D02*
G37*
G36*
X139106D02*
X133706D01*
X133771Y174036D01*
X134109Y172920D01*
X134659Y171891D01*
X135399Y170990D01*
X136301Y170250D01*
X137329Y169700D01*
X138445Y169361D01*
X139106Y169296D01*
Y174697D01*
D02*
G37*
G36*
X159606Y181147D02*
X158446Y181032D01*
X157329Y180694D01*
X156301Y180144D01*
X155399Y179404D01*
X154659Y178502D01*
X154109Y177474D01*
X153771Y176358D01*
X153656Y175197D01*
X153771Y174036D01*
X154109Y172920D01*
X154659Y171891D01*
X155399Y170990D01*
X156301Y170250D01*
X157329Y169700D01*
X158446Y169361D01*
X159606Y169247D01*
X160767Y169361D01*
X161883Y169700D01*
X162912Y170250D01*
X163813Y170990D01*
X164553Y171891D01*
X165103Y172920D01*
X165442Y174036D01*
X165556Y175197D01*
X165442Y176358D01*
X165103Y177474D01*
X164553Y178502D01*
X163813Y179404D01*
X162912Y180144D01*
X161883Y180694D01*
X160767Y181032D01*
X159606Y181147D01*
D02*
G37*
G36*
X218791Y167943D02*
X218413Y167868D01*
X218293Y167787D01*
X211628D01*
X211508Y167868D01*
X211130Y167943D01*
Y165748D01*
Y163553D01*
X211508Y163629D01*
X211628Y163709D01*
X218293D01*
X218413Y163629D01*
X218791Y163553D01*
Y165748D01*
Y167943D01*
D02*
G37*
G36*
X219791D02*
Y166248D01*
X221486D01*
X221411Y166626D01*
X220914Y167370D01*
X220169Y167868D01*
X219791Y167943D01*
D02*
G37*
G36*
X210130D02*
X209752Y167868D01*
X209008Y167370D01*
X208510Y166626D01*
X208435Y166248D01*
X210130D01*
Y167943D01*
D02*
G37*
G36*
X42323Y173874D02*
X41137Y173718D01*
X40032Y173260D01*
X39083Y172532D01*
X38354Y171583D01*
X37896Y170477D01*
X37740Y169291D01*
X37896Y168105D01*
X38354Y167000D01*
X39083Y166051D01*
X40032Y165323D01*
X41137Y164865D01*
X42323Y164709D01*
X43509Y164865D01*
X44614Y165323D01*
X45563Y166051D01*
X46291Y167000D01*
X46749Y168105D01*
X46905Y169291D01*
X46749Y170477D01*
X46291Y171583D01*
X45563Y172532D01*
X44614Y173260D01*
X43509Y173718D01*
X42323Y173874D01*
D02*
G37*
G36*
X221486Y165248D02*
X219791D01*
Y163553D01*
X220169Y163629D01*
X220914Y164126D01*
X221411Y164870D01*
X221486Y165248D01*
D02*
G37*
G36*
X210130D02*
X208435D01*
X208510Y164870D01*
X209008Y164126D01*
X209752Y163629D01*
X210130Y163553D01*
Y165248D01*
D02*
G37*
G36*
X690009Y192913D02*
X687944D01*
X685897Y192644D01*
X683904Y192110D01*
X681996Y191320D01*
X680208Y190287D01*
X678571Y189031D01*
X677111Y187571D01*
X675854Y185933D01*
X674822Y184145D01*
X674032Y182238D01*
X673498Y180244D01*
X673228Y178198D01*
Y176133D01*
X673498Y174086D01*
X674032Y172092D01*
X674822Y170185D01*
X675854Y168397D01*
X677111Y166760D01*
X678571Y165300D01*
X680208Y164043D01*
X681996Y163011D01*
X683904Y162221D01*
X685897Y161687D01*
X687944Y161417D01*
X690009D01*
X692055Y161687D01*
X694049Y162221D01*
X695957Y163011D01*
X697744Y164043D01*
X699382Y165300D01*
X700842Y166760D01*
X702099Y168397D01*
X703131Y170185D01*
X703921Y172092D01*
X704455Y174086D01*
X704724Y176133D01*
Y178198D01*
X704455Y180244D01*
X703921Y182238D01*
X703131Y184145D01*
X702099Y185933D01*
X700842Y187571D01*
X699382Y189031D01*
X697744Y190287D01*
X695957Y191320D01*
X694049Y192110D01*
X692055Y192644D01*
X690009Y192913D01*
D02*
G37*
G36*
X20717D02*
X18653D01*
X16606Y192644D01*
X14612Y192110D01*
X12705Y191320D01*
X10917Y190287D01*
X9279Y189031D01*
X7820Y187571D01*
X6563Y185933D01*
X5531Y184145D01*
X4741Y182238D01*
X4206Y180244D01*
X3937Y178198D01*
Y176133D01*
X4206Y174086D01*
X4741Y172092D01*
X5531Y170185D01*
X6563Y168397D01*
X7820Y166760D01*
X9279Y165300D01*
X10917Y164043D01*
X12705Y163011D01*
X14612Y162221D01*
X16606Y161687D01*
X18653Y161417D01*
X20717D01*
X22764Y161687D01*
X24758Y162221D01*
X26665Y163011D01*
X28453Y164043D01*
X30091Y165300D01*
X31550Y166760D01*
X32807Y168397D01*
X33839Y170185D01*
X34629Y172092D01*
X35164Y174086D01*
X35433Y176133D01*
Y178198D01*
X35164Y180244D01*
X34629Y182238D01*
X33839Y184145D01*
X32807Y185933D01*
X31550Y187571D01*
X30091Y189031D01*
X28453Y190287D01*
X26665Y191320D01*
X24758Y192110D01*
X22764Y192644D01*
X20717Y192913D01*
D02*
G37*
G36*
X200787Y162063D02*
X199601Y161907D01*
X198496Y161449D01*
X197547Y160721D01*
X196819Y159772D01*
X196361Y158666D01*
X196205Y157480D01*
X196361Y156294D01*
X196819Y155189D01*
X197547Y154240D01*
X198496Y153512D01*
X199601Y153054D01*
X200787Y152898D01*
X201973Y153054D01*
X203079Y153512D01*
X204028Y154240D01*
X204756Y155189D01*
X205214Y156294D01*
X205370Y157480D01*
X205214Y158666D01*
X204756Y159772D01*
X204028Y160721D01*
X203079Y161449D01*
X201973Y161907D01*
X200787Y162063D01*
D02*
G37*
G36*
X693976Y148008D02*
X692790Y147852D01*
X691685Y147394D01*
X690736Y146666D01*
X690008Y145717D01*
X689550Y144611D01*
X689468Y143989D01*
X689437Y143892D01*
X689437Y143891D01*
X689437Y143890D01*
X689371Y143286D01*
X689226Y142250D01*
X689064Y141439D01*
X688985Y141143D01*
X688907Y140907D01*
X688839Y140746D01*
X688798Y140672D01*
X688094Y139968D01*
X687630Y140014D01*
X687424Y140455D01*
X687945Y141134D01*
X688403Y142239D01*
X688559Y143425D01*
X688403Y144611D01*
X687945Y145717D01*
X687217Y146666D01*
X686268Y147394D01*
X685162Y147852D01*
X683976Y148008D01*
X682790Y147852D01*
X681685Y147394D01*
X680736Y146666D01*
X680008Y145717D01*
X679550Y144611D01*
X679394Y143425D01*
X679550Y142239D01*
X680008Y141134D01*
X680565Y140408D01*
X680318Y139908D01*
X680315D01*
X679808Y139807D01*
X679378Y139520D01*
X654175Y114318D01*
X615551D01*
X615044Y114217D01*
X614614Y113929D01*
X611653Y110969D01*
X611292Y111078D01*
X611141Y111164D01*
X610677Y111858D01*
X609933Y112356D01*
X609055Y112530D01*
X608177Y112356D01*
X607433Y111858D01*
X607367Y111760D01*
X607357Y111750D01*
X607287Y111688D01*
X607225Y111640D01*
X607173Y111604D01*
X607131Y111579D01*
X607101Y111565D01*
X607093Y111562D01*
X596063D01*
X595556Y111461D01*
X595126Y111173D01*
X595027Y111075D01*
X594740Y110645D01*
X594639Y110138D01*
Y86400D01*
X593345Y85105D01*
X593337Y85102D01*
X593305Y85091D01*
X593258Y85079D01*
X593210Y85070D01*
X593011Y85052D01*
X592895Y85075D01*
X592017Y84900D01*
X591272Y84403D01*
X590835Y83747D01*
X590343Y83681D01*
X590007Y84030D01*
Y89642D01*
X590012Y89653D01*
X590031Y89682D01*
X590062Y89723D01*
X590106Y89772D01*
X590164Y89829D01*
X590256Y89911D01*
X590262Y89919D01*
X590402Y90012D01*
X590899Y90756D01*
X591074Y91634D01*
X590899Y92512D01*
X590402Y93256D01*
X589657Y93753D01*
X588779Y93928D01*
X587902Y93753D01*
X587157Y93256D01*
X586660Y92512D01*
X586485Y91634D01*
X586660Y90756D01*
X587018Y90221D01*
X587041Y90175D01*
X587082Y90124D01*
X587157Y90012D01*
X587190Y89990D01*
X587215Y89959D01*
X587260Y89894D01*
X587299Y89829D01*
X587328Y89775D01*
X587346Y89734D01*
X587356Y89708D01*
Y83951D01*
X587353Y83942D01*
X587338Y83912D01*
X587313Y83870D01*
X587286Y83830D01*
X587157Y83676D01*
X587059Y83610D01*
X586562Y82866D01*
X586520Y82658D01*
X585989Y82552D01*
X585874Y82724D01*
X585130Y83222D01*
X584752Y83297D01*
Y81102D01*
Y78908D01*
X585130Y78983D01*
X585874Y79480D01*
X586371Y80225D01*
X586413Y80433D01*
X586944Y80538D01*
X587059Y80366D01*
X587803Y79869D01*
X588681Y79694D01*
X589559Y79869D01*
X590303Y80366D01*
X590752Y81037D01*
X591119Y81123D01*
X591314Y81130D01*
X591922Y80724D01*
X592082Y80177D01*
X574353Y62448D01*
X492084D01*
X492058Y62457D01*
X492016Y62475D01*
X491962Y62504D01*
X491909Y62537D01*
X491799Y62616D01*
X491780Y62646D01*
X491658Y62727D01*
X491633Y62748D01*
X491598Y62767D01*
X491035Y63143D01*
X490158Y63318D01*
X489280Y63143D01*
X488535Y62646D01*
X488038Y61901D01*
X487863Y61024D01*
X488038Y60146D01*
X488535Y59402D01*
X489280Y58904D01*
X490158Y58729D01*
X491035Y58904D01*
X491780Y59402D01*
X491873Y59541D01*
X491881Y59547D01*
X491962Y59639D01*
X492019Y59697D01*
X492069Y59741D01*
X492109Y59772D01*
X492139Y59791D01*
X492150Y59797D01*
X574902D01*
X575409Y59898D01*
X575839Y60185D01*
X591913Y76259D01*
X592375Y76068D01*
Y64370D01*
X592476Y63863D01*
X592764Y63433D01*
X596037Y60160D01*
Y52897D01*
X596035Y52884D01*
X596011Y52799D01*
X595948Y52650D01*
X595838Y52450D01*
X595679Y52207D01*
X595484Y51943D01*
X594552Y50889D01*
X594241Y50576D01*
X594122Y50484D01*
X593394Y49535D01*
X592936Y48430D01*
X592780Y47244D01*
X592936Y46058D01*
X593394Y44953D01*
X594122Y44004D01*
X595071Y43275D01*
X596176Y42818D01*
X597362Y42662D01*
X598548Y42818D01*
X599653Y43275D01*
X600602Y44004D01*
X601331Y44953D01*
X601789Y46058D01*
X601945Y47244D01*
X601789Y48430D01*
X601331Y49535D01*
X600602Y50484D01*
X600492Y50569D01*
X599812Y51270D01*
X599246Y51935D01*
X599045Y52207D01*
X598886Y52450D01*
X598776Y52650D01*
X598713Y52799D01*
X598689Y52884D01*
X598688Y52897D01*
Y60709D01*
X598587Y61216D01*
X598299Y61646D01*
X595026Y64919D01*
Y75141D01*
X595526Y75293D01*
X595622Y75150D01*
X596366Y74652D01*
X597244Y74478D01*
X598122Y74652D01*
X598657Y75010D01*
X599016Y75108D01*
X599374Y75010D01*
X599909Y74652D01*
X600787Y74478D01*
X600963Y74513D01*
X601264Y74063D01*
X601030Y73713D01*
X600855Y72835D01*
X601030Y71957D01*
X601528Y71213D01*
X602272Y70715D01*
X602512Y70667D01*
X602902Y70082D01*
X602823Y69685D01*
X602997Y68807D01*
X603495Y68063D01*
X603741Y67898D01*
X603780Y67853D01*
X603805Y67840D01*
X603824Y67820D01*
X603866Y67790D01*
X604616Y67131D01*
X604968Y66779D01*
X604983Y66656D01*
X604912Y66215D01*
X604283Y65795D01*
X603786Y65051D01*
X603611Y64173D01*
X603786Y63295D01*
X604283Y62551D01*
X605028Y62054D01*
X605905Y61879D01*
X606232Y61944D01*
X606531Y61546D01*
X606542Y61508D01*
X606367Y60630D01*
X606542Y59752D01*
X607039Y59008D01*
X607784Y58511D01*
X608661Y58336D01*
X609539Y58511D01*
X610284Y59008D01*
X610349Y59106D01*
X610359Y59116D01*
X610429Y59178D01*
X610491Y59226D01*
X610544Y59262D01*
X610585Y59287D01*
X610615Y59301D01*
X610624Y59304D01*
X661656D01*
X674260Y46701D01*
X674690Y46413D01*
X675197Y46312D01*
X688189D01*
X688696Y46413D01*
X689126Y46701D01*
X690916Y48491D01*
X690927Y48499D01*
X691004Y48542D01*
X691153Y48602D01*
X691373Y48666D01*
X691657Y48726D01*
X691982Y48775D01*
X693386Y48861D01*
X693828Y48862D01*
X693976Y48843D01*
X695162Y48999D01*
X696268Y49457D01*
X697217Y50185D01*
X697945Y51134D01*
X698403Y52239D01*
X698559Y53425D01*
X698403Y54611D01*
X697945Y55716D01*
X697217Y56665D01*
X696268Y57394D01*
X695162Y57852D01*
X693976Y58008D01*
X692790Y57852D01*
X691685Y57394D01*
X690736Y56665D01*
X690008Y55716D01*
X689550Y54611D01*
X689394Y53425D01*
X689412Y53288D01*
X689397Y52311D01*
X689327Y51440D01*
X689277Y51106D01*
X689218Y50822D01*
X689153Y50602D01*
X689093Y50452D01*
X689050Y50376D01*
X689042Y50365D01*
X687640Y48963D01*
X686383D01*
X686273Y49435D01*
X686276Y49463D01*
X687217Y50185D01*
X687945Y51134D01*
X688403Y52239D01*
X688493Y52925D01*
X683976D01*
X679460D01*
X679550Y52239D01*
X680008Y51134D01*
X680736Y50185D01*
X681676Y49463D01*
X681680Y49435D01*
X681570Y48963D01*
X675746D01*
X668229Y56480D01*
X668420Y56942D01*
X680318D01*
X680565Y56442D01*
X680008Y55716D01*
X679550Y54611D01*
X679460Y53925D01*
X683976D01*
X688493D01*
X688403Y54611D01*
X687945Y55716D01*
X687388Y56442D01*
X687635Y56942D01*
X688819D01*
X689326Y57043D01*
X689756Y57331D01*
X690916Y58491D01*
X690927Y58499D01*
X691004Y58542D01*
X691153Y58602D01*
X691373Y58666D01*
X691657Y58726D01*
X691982Y58775D01*
X693386Y58861D01*
X693828Y58862D01*
X693976Y58843D01*
X695162Y58999D01*
X696268Y59457D01*
X697217Y60185D01*
X697945Y61134D01*
X698403Y62239D01*
X698559Y63425D01*
X698403Y64611D01*
X697945Y65716D01*
X697217Y66666D01*
X696268Y67394D01*
X695162Y67852D01*
X693976Y68008D01*
X692790Y67852D01*
X691685Y67394D01*
X690736Y66666D01*
X690008Y65716D01*
X689550Y64611D01*
X689394Y63425D01*
X689412Y63288D01*
X689397Y62311D01*
X689327Y61440D01*
X689277Y61106D01*
X689218Y60822D01*
X689153Y60602D01*
X689093Y60452D01*
X689050Y60376D01*
X689042Y60365D01*
X688270Y59593D01*
X687223D01*
X687063Y60067D01*
X687217Y60185D01*
X687945Y61134D01*
X688403Y62239D01*
X688559Y63425D01*
X688403Y64611D01*
X687945Y65716D01*
X687217Y66666D01*
X686577Y67156D01*
X686747Y67656D01*
X689533D01*
X690040Y67757D01*
X690470Y68045D01*
X690916Y68491D01*
X690927Y68499D01*
X691004Y68542D01*
X691153Y68602D01*
X691373Y68666D01*
X691657Y68726D01*
X691982Y68775D01*
X693386Y68861D01*
X693828Y68862D01*
X693976Y68843D01*
X695162Y68999D01*
X696268Y69457D01*
X697217Y70185D01*
X697945Y71134D01*
X698403Y72239D01*
X698559Y73425D01*
X698403Y74611D01*
X697945Y75716D01*
X697217Y76666D01*
X696268Y77394D01*
X695162Y77852D01*
X693976Y78008D01*
X692790Y77852D01*
X691685Y77394D01*
X690736Y76666D01*
X690008Y75716D01*
X689550Y74611D01*
X689394Y73425D01*
X689412Y73287D01*
X689397Y72311D01*
X689327Y71440D01*
X689277Y71106D01*
X689218Y70822D01*
X689153Y70602D01*
X689093Y70452D01*
X689050Y70376D01*
X689042Y70365D01*
X688984Y70307D01*
X687876D01*
X687655Y70756D01*
X687945Y71134D01*
X688403Y72239D01*
X688559Y73425D01*
X688403Y74611D01*
X687945Y75716D01*
X687217Y76666D01*
X686907Y76903D01*
X687067Y77377D01*
X688545D01*
X689052Y77478D01*
X689482Y77765D01*
X690560Y78843D01*
X690583Y78862D01*
X690656Y78902D01*
X690787Y78951D01*
X690979Y78998D01*
X691231Y79033D01*
X691540Y79053D01*
X691891Y79052D01*
X692789Y78983D01*
X693302Y78912D01*
X693401Y78918D01*
X693976Y78843D01*
X695162Y78999D01*
X696268Y79457D01*
X697217Y80185D01*
X697945Y81134D01*
X698403Y82239D01*
X698559Y83425D01*
X698403Y84611D01*
X697945Y85716D01*
X697217Y86665D01*
X696268Y87394D01*
X695162Y87852D01*
X693976Y88008D01*
X692790Y87852D01*
X691685Y87394D01*
X690736Y86665D01*
X690008Y85716D01*
X689550Y84611D01*
X689487Y84132D01*
X689457Y84051D01*
X689189Y82357D01*
X689008Y81539D01*
X688922Y81237D01*
X688840Y80996D01*
X688770Y80832D01*
X688731Y80763D01*
X688177Y80209D01*
X687893Y80245D01*
X687671Y80777D01*
X687945Y81134D01*
X688403Y82239D01*
X688559Y83425D01*
X688403Y84611D01*
X687945Y85716D01*
X687217Y86665D01*
X687063Y86784D01*
X687223Y87257D01*
X687795D01*
X688303Y87358D01*
X688732Y87645D01*
X690285Y89198D01*
X690314Y89222D01*
X690380Y89258D01*
X690490Y89297D01*
X690654Y89329D01*
X690872Y89347D01*
X691145Y89343D01*
X691454Y89314D01*
X692268Y89159D01*
X692648Y89058D01*
X692790Y88999D01*
X693976Y88843D01*
X695162Y88999D01*
X696268Y89457D01*
X697217Y90185D01*
X697945Y91134D01*
X698403Y92239D01*
X698559Y93425D01*
X698403Y94611D01*
X697945Y95716D01*
X697217Y96666D01*
X696268Y97394D01*
X695162Y97852D01*
X693976Y98008D01*
X692790Y97852D01*
X691685Y97394D01*
X690736Y96666D01*
X690008Y95716D01*
X689550Y94611D01*
X689531Y94469D01*
X689222Y93344D01*
X688925Y92373D01*
X688434Y92479D01*
X688559Y93425D01*
X688403Y94611D01*
X687945Y95716D01*
X687267Y96600D01*
X687389Y97100D01*
X688976D01*
X689484Y97201D01*
X689914Y97488D01*
X690916Y98491D01*
X690927Y98499D01*
X691004Y98542D01*
X691153Y98602D01*
X691373Y98666D01*
X691657Y98726D01*
X691982Y98775D01*
X693386Y98861D01*
X693828Y98862D01*
X693976Y98843D01*
X695162Y98999D01*
X696268Y99457D01*
X697217Y100185D01*
X697945Y101134D01*
X698403Y102239D01*
X698559Y103425D01*
X698403Y104611D01*
X697945Y105717D01*
X697217Y106666D01*
X696268Y107394D01*
X695162Y107852D01*
X693976Y108008D01*
X692790Y107852D01*
X691685Y107394D01*
X690736Y106666D01*
X690008Y105717D01*
X689550Y104611D01*
X689394Y103425D01*
X689412Y103287D01*
X689397Y102311D01*
X689327Y101440D01*
X689277Y101106D01*
X689218Y100822D01*
X689153Y100602D01*
X689093Y100452D01*
X689050Y100376D01*
X689042Y100365D01*
X688427Y99751D01*
X687389D01*
X687267Y100251D01*
X687945Y101134D01*
X688403Y102239D01*
X688559Y103425D01*
X688403Y104611D01*
X687945Y105717D01*
X687388Y106442D01*
X687635Y106942D01*
X688819D01*
X689326Y107043D01*
X689756Y107331D01*
X690916Y108491D01*
X690927Y108499D01*
X691004Y108542D01*
X691153Y108602D01*
X691373Y108666D01*
X691657Y108726D01*
X691982Y108775D01*
X693386Y108861D01*
X693828Y108862D01*
X693976Y108843D01*
X695162Y108999D01*
X696268Y109457D01*
X697217Y110185D01*
X697945Y111134D01*
X698403Y112239D01*
X698559Y113425D01*
X698403Y114611D01*
X697945Y115717D01*
X697217Y116665D01*
X696268Y117394D01*
X695162Y117852D01*
X693976Y118008D01*
X692790Y117852D01*
X691685Y117394D01*
X690736Y116665D01*
X690008Y115717D01*
X689550Y114611D01*
X689394Y113425D01*
X689412Y113287D01*
X689397Y112311D01*
X689327Y111440D01*
X689277Y111106D01*
X689218Y110822D01*
X689153Y110602D01*
X689093Y110452D01*
X689050Y110376D01*
X689042Y110365D01*
X688270Y109593D01*
X687223D01*
X687063Y110067D01*
X687217Y110185D01*
X687945Y111134D01*
X688403Y112239D01*
X688559Y113425D01*
X688403Y114611D01*
X687945Y115717D01*
X687217Y116665D01*
X687165Y116705D01*
X687326Y117178D01*
X689055D01*
X689562Y117279D01*
X689992Y117567D01*
X690916Y118491D01*
X690927Y118499D01*
X691004Y118542D01*
X691153Y118602D01*
X691373Y118666D01*
X691657Y118726D01*
X691982Y118775D01*
X693386Y118861D01*
X693828Y118862D01*
X693976Y118843D01*
X695162Y118999D01*
X696268Y119457D01*
X697217Y120185D01*
X697945Y121134D01*
X698403Y122239D01*
X698559Y123425D01*
X698403Y124611D01*
X697945Y125716D01*
X697217Y126665D01*
X696268Y127394D01*
X695162Y127852D01*
X693976Y128008D01*
X692790Y127852D01*
X691685Y127394D01*
X690736Y126665D01*
X690008Y125716D01*
X689550Y124611D01*
X689394Y123425D01*
X689412Y123287D01*
X689397Y122311D01*
X689327Y121440D01*
X689277Y121106D01*
X689218Y120822D01*
X689153Y120602D01*
X689093Y120452D01*
X689050Y120376D01*
X689042Y120365D01*
X688506Y119829D01*
X687525D01*
X687328Y120329D01*
X687945Y121134D01*
X688403Y122239D01*
X688559Y123425D01*
X688403Y124611D01*
X687945Y125716D01*
X687328Y126521D01*
X687525Y127021D01*
X688898D01*
X689405Y127122D01*
X689835Y127409D01*
X690916Y128491D01*
X690927Y128499D01*
X691004Y128542D01*
X691153Y128602D01*
X691373Y128666D01*
X691657Y128726D01*
X691982Y128775D01*
X693386Y128861D01*
X693828Y128862D01*
X693976Y128843D01*
X695162Y128999D01*
X696268Y129457D01*
X697217Y130185D01*
X697945Y131134D01*
X698403Y132239D01*
X698559Y133425D01*
X698403Y134611D01*
X697945Y135716D01*
X697217Y136665D01*
X696268Y137394D01*
X695162Y137852D01*
X693976Y138008D01*
X692790Y137852D01*
X691685Y137394D01*
X690736Y136665D01*
X690008Y135716D01*
X689550Y134611D01*
X689394Y133425D01*
X689412Y133288D01*
X689397Y132311D01*
X689327Y131440D01*
X689277Y131106D01*
X689218Y130822D01*
X689153Y130602D01*
X689093Y130452D01*
X689050Y130376D01*
X689042Y130365D01*
X688349Y129672D01*
X687326D01*
X687165Y130145D01*
X687217Y130185D01*
X687945Y131134D01*
X688403Y132239D01*
X688559Y133425D01*
X688403Y134611D01*
X687945Y135716D01*
X687217Y136665D01*
X687063Y136784D01*
X687223Y137257D01*
X688583D01*
X689090Y137358D01*
X689520Y137645D01*
X690635Y138760D01*
X690656Y138777D01*
X690730Y138819D01*
X690865Y138870D01*
X691064Y138920D01*
X691324Y138961D01*
X691641Y138987D01*
X692002Y138995D01*
X692919Y138949D01*
X693445Y138893D01*
X693531Y138901D01*
X693976Y138843D01*
X695162Y138999D01*
X696268Y139457D01*
X697217Y140185D01*
X697945Y141134D01*
X698403Y142239D01*
X698559Y143425D01*
X698403Y144611D01*
X697945Y145717D01*
X697217Y146666D01*
X696268Y147394D01*
X695162Y147852D01*
X693976Y148008D01*
D02*
G37*
G36*
X383858Y149071D02*
X382672Y148915D01*
X381567Y148457D01*
X380618Y147729D01*
X379890Y146779D01*
X379432Y145674D01*
X379276Y144488D01*
X379432Y143302D01*
X379890Y142197D01*
X380618Y141248D01*
X381567Y140520D01*
X382672Y140062D01*
X383858Y139906D01*
X385044Y140062D01*
X386150Y140520D01*
X387099Y141248D01*
X387827Y142197D01*
X388285Y143302D01*
X388441Y144488D01*
X388285Y145674D01*
X387827Y146779D01*
X387099Y147729D01*
X386150Y148457D01*
X385044Y148915D01*
X383858Y149071D01*
D02*
G37*
G36*
X425000Y188515D02*
X424122Y188340D01*
X423378Y187843D01*
X422881Y187098D01*
X422706Y186221D01*
X422881Y185343D01*
X423378Y184598D01*
X423674Y184400D01*
Y143820D01*
X423378Y143622D01*
X422881Y142878D01*
X422706Y142000D01*
X422881Y141122D01*
X423378Y140378D01*
X424122Y139881D01*
X425000Y139706D01*
X425878Y139881D01*
X426622Y140378D01*
X427119Y141122D01*
X427294Y142000D01*
X427119Y142878D01*
X426622Y143622D01*
X426326Y143820D01*
Y184400D01*
X426622Y184598D01*
X427119Y185343D01*
X427294Y186221D01*
X427119Y187098D01*
X426622Y187843D01*
X425878Y188340D01*
X425000Y188515D01*
D02*
G37*
G36*
X14685Y148008D02*
X13499Y147852D01*
X12394Y147394D01*
X11445Y146666D01*
X10717Y145717D01*
X10259Y144611D01*
X10103Y143425D01*
X10259Y142239D01*
X10717Y141134D01*
X11445Y140185D01*
X12394Y139457D01*
X13499Y138999D01*
X14685Y138843D01*
X15871Y138999D01*
X16976Y139457D01*
X17925Y140185D01*
X18654Y141134D01*
X19111Y142239D01*
X19267Y143425D01*
X19111Y144611D01*
X18654Y145717D01*
X17925Y146666D01*
X16976Y147394D01*
X15871Y147852D01*
X14685Y148008D01*
D02*
G37*
G36*
X144500Y132195D02*
X144122Y132120D01*
X143378Y131622D01*
X142880Y130878D01*
X142805Y130500D01*
X144500D01*
Y132195D01*
D02*
G37*
G36*
X348819Y139622D02*
X347633Y139466D01*
X346528Y139008D01*
X345579Y138280D01*
X344850Y137331D01*
X344392Y136225D01*
X344236Y135039D01*
X344392Y133853D01*
X344850Y132748D01*
X345579Y131799D01*
X346528Y131071D01*
X347633Y130613D01*
X348819Y130457D01*
X350005Y130613D01*
X351110Y131071D01*
X352059Y131799D01*
X352787Y132748D01*
X353245Y133853D01*
X353401Y135039D01*
X353245Y136225D01*
X352787Y137331D01*
X352059Y138280D01*
X351110Y139008D01*
X350005Y139466D01*
X348819Y139622D01*
D02*
G37*
G36*
X200106Y132116D02*
Y130421D01*
X201801D01*
X201726Y130799D01*
X201228Y131543D01*
X200484Y132041D01*
X200106Y132116D01*
D02*
G37*
G36*
X14685Y138008D02*
X13499Y137852D01*
X12394Y137394D01*
X11445Y136665D01*
X10717Y135716D01*
X10259Y134611D01*
X10103Y133425D01*
X10259Y132239D01*
X10717Y131134D01*
X11445Y130185D01*
X12394Y129457D01*
X13499Y128999D01*
X14685Y128843D01*
X15871Y128999D01*
X16976Y129457D01*
X17925Y130185D01*
X18654Y131134D01*
X19111Y132239D01*
X19267Y133425D01*
X19111Y134611D01*
X18654Y135716D01*
X17925Y136665D01*
X16976Y137394D01*
X15871Y137852D01*
X14685Y138008D01*
D02*
G37*
G36*
X144500Y129500D02*
X142805D01*
X142880Y129122D01*
X143378Y128378D01*
X144122Y127881D01*
X144500Y127805D01*
Y129500D01*
D02*
G37*
G36*
X201801Y129421D02*
X200106D01*
Y127727D01*
X200484Y127802D01*
X201228Y128299D01*
X201726Y129043D01*
X201801Y129421D01*
D02*
G37*
G36*
X24685Y148008D02*
X23499Y147852D01*
X22394Y147394D01*
X21445Y146666D01*
X20717Y145717D01*
X20259Y144611D01*
X20102Y143425D01*
X20259Y142239D01*
X20717Y141134D01*
X21445Y140185D01*
X22394Y139457D01*
X23499Y138999D01*
X24685Y138843D01*
X24823Y138861D01*
X25799Y138846D01*
X26670Y138776D01*
X27004Y138726D01*
X27288Y138666D01*
X27508Y138602D01*
X27658Y138542D01*
X27735Y138499D01*
X27745Y138491D01*
X42795Y123441D01*
X42603Y122979D01*
X37006D01*
X29620Y130365D01*
X29611Y130376D01*
X29568Y130452D01*
X29508Y130602D01*
X29444Y130822D01*
X29384Y131106D01*
X29335Y131431D01*
X29249Y132835D01*
X29248Y133277D01*
X29267Y133425D01*
X29111Y134611D01*
X28654Y135716D01*
X27925Y136665D01*
X26976Y137394D01*
X25871Y137852D01*
X24685Y138008D01*
X23499Y137852D01*
X22394Y137394D01*
X21445Y136665D01*
X20717Y135716D01*
X20259Y134611D01*
X20102Y133425D01*
X20259Y132239D01*
X20717Y131134D01*
X21445Y130185D01*
X22394Y129457D01*
X23499Y128999D01*
X24685Y128843D01*
X24823Y128861D01*
X25799Y128846D01*
X26670Y128776D01*
X27004Y128726D01*
X27288Y128666D01*
X27508Y128602D01*
X27658Y128542D01*
X27735Y128499D01*
X27745Y128491D01*
X34566Y121669D01*
X34375Y121207D01*
X29385D01*
X29229Y121322D01*
X28970Y121707D01*
X28971Y121711D01*
X29009Y121923D01*
X29055Y122103D01*
X29111Y122239D01*
X29267Y123425D01*
X29111Y124611D01*
X28654Y125716D01*
X27925Y126665D01*
X26976Y127394D01*
X25871Y127852D01*
X24685Y128008D01*
X23499Y127852D01*
X22394Y127394D01*
X21445Y126665D01*
X20717Y125716D01*
X20259Y124611D01*
X20102Y123425D01*
X20259Y122239D01*
X20717Y121134D01*
X21445Y120185D01*
X22394Y119457D01*
X23499Y118999D01*
X24685Y118843D01*
X25871Y118999D01*
X26007Y119055D01*
X26187Y119101D01*
X26399Y119140D01*
X26585Y119158D01*
X26744Y119159D01*
X26877Y119147D01*
X26987Y119124D01*
X27077Y119093D01*
X27155Y119055D01*
X27225Y119008D01*
X27248Y118987D01*
X27291Y118945D01*
X27315Y118929D01*
X27342Y118904D01*
X27408Y118866D01*
X27721Y118657D01*
X28228Y118556D01*
X50143D01*
X50313Y118056D01*
X49988Y117807D01*
X49260Y116858D01*
X48802Y115753D01*
X48646Y114567D01*
X48802Y113381D01*
X49260Y112276D01*
X49988Y111327D01*
X50937Y110598D01*
X52042Y110141D01*
X53228Y109984D01*
X54414Y110141D01*
X55520Y110598D01*
X56469Y111327D01*
X57197Y112276D01*
X57655Y113381D01*
X57811Y114567D01*
X57655Y115753D01*
X57197Y116858D01*
X56469Y117807D01*
X56144Y118056D01*
X56314Y118556D01*
X275477D01*
X275669Y118095D01*
X269142Y111567D01*
X268854Y111137D01*
X268753Y110630D01*
Y71647D01*
X268750Y71639D01*
X268736Y71609D01*
X268711Y71567D01*
X268683Y71527D01*
X268555Y71373D01*
X268457Y71307D01*
X267959Y70563D01*
X267785Y69685D01*
X267959Y68807D01*
X268457Y68063D01*
X269201Y67566D01*
X270079Y67391D01*
X270957Y67566D01*
X271701Y68063D01*
X272198Y68807D01*
X272373Y69685D01*
X272198Y70563D01*
X271701Y71307D01*
X271602Y71373D01*
X271593Y71383D01*
X271531Y71453D01*
X271482Y71515D01*
X271446Y71567D01*
X271422Y71609D01*
X271407Y71639D01*
X271404Y71647D01*
Y110081D01*
X278502Y117178D01*
X330811D01*
X331003Y116717D01*
X328984Y114698D01*
X328697Y114268D01*
X328596Y113761D01*
Y72041D01*
X328593Y72033D01*
X328578Y72003D01*
X328554Y71961D01*
X328526Y71921D01*
X328397Y71767D01*
X328299Y71701D01*
X327802Y70957D01*
X327627Y70079D01*
X327802Y69201D01*
X328299Y68457D01*
X329043Y67959D01*
X329921Y67785D01*
X330799Y67959D01*
X331543Y68457D01*
X332041Y69201D01*
X332215Y70079D01*
X332041Y70957D01*
X331543Y71701D01*
X331445Y71767D01*
X331435Y71777D01*
X331374Y71847D01*
X331325Y71909D01*
X331289Y71961D01*
X331264Y72003D01*
X331250Y72033D01*
X331247Y72041D01*
Y113212D01*
X334014Y115979D01*
X388648D01*
X388839Y115516D01*
X387645Y114323D01*
X387358Y113893D01*
X387257Y113386D01*
Y72435D01*
X387254Y72427D01*
X387239Y72396D01*
X387215Y72355D01*
X387187Y72315D01*
X387059Y72160D01*
X386961Y72095D01*
X386463Y71350D01*
X386289Y70472D01*
X386463Y69595D01*
X386961Y68850D01*
X387705Y68353D01*
X388583Y68178D01*
X389461Y68353D01*
X390205Y68850D01*
X390702Y69595D01*
X390877Y70472D01*
X390702Y71350D01*
X390205Y72095D01*
X390106Y72160D01*
X390097Y72170D01*
X390035Y72240D01*
X389986Y72302D01*
X389950Y72355D01*
X389926Y72396D01*
X389911Y72426D01*
X389908Y72435D01*
Y112837D01*
X391850Y114778D01*
X392386D01*
X392786Y114278D01*
X392686Y113779D01*
X392861Y112902D01*
X393358Y112157D01*
X394102Y111660D01*
X394980Y111485D01*
X395858Y111660D01*
X396603Y112157D01*
X397100Y112902D01*
X397187Y113340D01*
X427583D01*
X427735Y112840D01*
X427315Y112559D01*
X426818Y111815D01*
X426643Y110937D01*
X426818Y110059D01*
X427315Y109315D01*
X428059Y108818D01*
X428937Y108643D01*
X429815Y108818D01*
X430559Y109315D01*
X431056Y110059D01*
X431231Y110937D01*
X431161Y111287D01*
X432014Y112140D01*
X570336D01*
X574063Y108413D01*
X574493Y108126D01*
X575000Y108025D01*
X585138D01*
X585645Y108126D01*
X586075Y108413D01*
X593939Y116278D01*
X593947Y116281D01*
X593979Y116292D01*
X594026Y116304D01*
X594074Y116313D01*
X594274Y116331D01*
X594390Y116308D01*
X595268Y116483D01*
X596012Y116980D01*
X596509Y117725D01*
X596684Y118602D01*
X596509Y119480D01*
X596012Y120224D01*
X595268Y120722D01*
X595185Y120738D01*
X595040Y121217D01*
X595431Y121608D01*
X596561D01*
X596569Y121605D01*
X596600Y121590D01*
X596641Y121565D01*
X596681Y121538D01*
X596836Y121409D01*
X596902Y121311D01*
X597646Y120814D01*
X598524Y120639D01*
X599402Y120814D01*
X600146Y121311D01*
X600643Y122055D01*
X600818Y122933D01*
X600742Y123315D01*
X601152Y123815D01*
X608563D01*
X611661Y120716D01*
X612091Y120429D01*
X612598Y120328D01*
X615361D01*
X615369Y120325D01*
X615399Y120310D01*
X615441Y120286D01*
X615481Y120258D01*
X615635Y120130D01*
X615701Y120031D01*
X616445Y119534D01*
X617323Y119360D01*
X618201Y119534D01*
X618945Y120031D01*
X619442Y120776D01*
X619617Y121653D01*
X619442Y122531D01*
X618945Y123276D01*
X618409Y123634D01*
X618515Y124164D01*
X618988Y124258D01*
X619732Y124756D01*
X620230Y125500D01*
X620404Y126378D01*
X620298Y126915D01*
X620679Y127415D01*
X638589D01*
X638597Y127412D01*
X638627Y127397D01*
X638669Y127372D01*
X638709Y127345D01*
X638863Y127216D01*
X638929Y127118D01*
X639673Y126621D01*
X640551Y126446D01*
X641429Y126621D01*
X642173Y127118D01*
X642671Y127862D01*
X642845Y128740D01*
X642671Y129618D01*
X642173Y130362D01*
X641429Y130860D01*
X640551Y131034D01*
X639673Y130860D01*
X638929Y130362D01*
X638863Y130264D01*
X638853Y130254D01*
X638783Y130192D01*
X638721Y130144D01*
X638669Y130108D01*
X638627Y130083D01*
X638597Y130069D01*
X638589Y130066D01*
X586277D01*
X586125Y130566D01*
X586622Y130897D01*
X587119Y131642D01*
X587294Y132520D01*
X587119Y133398D01*
X586622Y134142D01*
X585878Y134639D01*
X585000Y134814D01*
X584884Y134791D01*
X584870Y134791D01*
X584777Y134797D01*
X584699Y134806D01*
X584636Y134818D01*
X584589Y134830D01*
X584558Y134841D01*
X584550Y134845D01*
X579973Y139421D01*
X579543Y139709D01*
X579035Y139810D01*
X542021D01*
X542013Y139813D01*
X541983Y139828D01*
X541941Y139852D01*
X541901Y139880D01*
X541747Y140008D01*
X541681Y140106D01*
X540937Y140604D01*
X540059Y140778D01*
X539181Y140604D01*
X538437Y140106D01*
X537940Y139362D01*
X537765Y138484D01*
X537940Y137606D01*
X538437Y136862D01*
X539181Y136365D01*
X540059Y136190D01*
X540937Y136365D01*
X541681Y136862D01*
X541747Y136961D01*
X541757Y136970D01*
X541827Y137032D01*
X541889Y137081D01*
X541941Y137117D01*
X541983Y137141D01*
X542013Y137156D01*
X542021Y137159D01*
X578486D01*
X582675Y132970D01*
X582679Y132962D01*
X582690Y132930D01*
X582702Y132883D01*
X582711Y132835D01*
X582729Y132636D01*
X582706Y132520D01*
X582881Y131642D01*
X583378Y130897D01*
X584082Y130427D01*
X584114Y130322D01*
X584120Y130270D01*
X584114Y129892D01*
X583792Y129677D01*
X580243Y126129D01*
X577325D01*
Y127038D01*
X577329Y127046D01*
X577343Y127076D01*
X577368Y127118D01*
X577395Y127158D01*
X577524Y127312D01*
X577622Y127378D01*
X578119Y128122D01*
X578294Y129000D01*
X578119Y129878D01*
X577622Y130622D01*
X576878Y131120D01*
X576000Y131294D01*
X575122Y131120D01*
X574378Y130622D01*
X573881Y129878D01*
X573706Y129000D01*
X573881Y128122D01*
X574378Y127378D01*
X574476Y127312D01*
X574486Y127302D01*
X574548Y127232D01*
X574596Y127170D01*
X574632Y127118D01*
X574657Y127076D01*
X574671Y127046D01*
X574675Y127038D01*
Y126129D01*
X173829D01*
X173447Y126629D01*
X173454Y126665D01*
X171260D01*
Y127665D01*
X172078D01*
X171260Y129921D01*
X174260Y128921D01*
X173880Y128904D01*
X173540Y128851D01*
X173240Y128763D01*
X172980Y128640D01*
X172760Y128482D01*
X172580Y128289D01*
X172440Y128061D01*
X172340Y127797D01*
X172313Y127665D01*
X173704D01*
X173895Y127874D01*
X173945Y127882D01*
X198608D01*
X198728Y127802D01*
X199106Y127727D01*
Y129921D01*
Y132116D01*
X198728Y132041D01*
X198608Y131960D01*
X171577D01*
X171181Y132039D01*
X145998D01*
X145878Y132120D01*
X145500Y132195D01*
Y130000D01*
Y127805D01*
X145878Y127881D01*
X145998Y127961D01*
X158788D01*
X158951Y127932D01*
X159334Y127642D01*
X159305Y127500D01*
X160459D01*
X160420Y127720D01*
X160320Y128020D01*
X160180Y128280D01*
X160000Y128500D01*
X159780Y128680D01*
X159520Y128820D01*
X159220Y128920D01*
X158880Y128980D01*
X158500Y129000D01*
X161500Y131000D01*
X164500Y129000D01*
X164120Y128980D01*
X163780Y128920D01*
X163480Y128820D01*
X163220Y128680D01*
X163000Y128500D01*
X162820Y128280D01*
X162680Y128020D01*
X162580Y127720D01*
X162520Y127380D01*
X162500Y127000D01*
X161500D01*
Y126500D01*
X159290D01*
X158985Y126129D01*
X72246D01*
X70666Y127709D01*
X70236Y127996D01*
X69728Y128097D01*
X68891D01*
X68883Y128100D01*
X68853Y128115D01*
X68811Y128139D01*
X68771Y128167D01*
X68617Y128295D01*
X68551Y128394D01*
X67807Y128891D01*
X66929Y129066D01*
X66051Y128891D01*
X65307Y128394D01*
X64810Y127650D01*
X64635Y126772D01*
X64810Y125894D01*
X65307Y125150D01*
X65450Y125054D01*
X65298Y124554D01*
X45431D01*
X29620Y140365D01*
X29611Y140375D01*
X29568Y140452D01*
X29508Y140602D01*
X29444Y140822D01*
X29384Y141106D01*
X29335Y141431D01*
X29249Y142835D01*
X29248Y143277D01*
X29267Y143425D01*
X29111Y144611D01*
X28654Y145717D01*
X27925Y146666D01*
X26976Y147394D01*
X25871Y147852D01*
X24685Y148008D01*
D02*
G37*
G36*
X14685Y128008D02*
X13499Y127852D01*
X12394Y127394D01*
X11445Y126665D01*
X10717Y125716D01*
X10259Y124611D01*
X10103Y123425D01*
X10259Y122239D01*
X10717Y121134D01*
X11445Y120185D01*
X12394Y119457D01*
X13499Y118999D01*
X14685Y118843D01*
X15871Y118999D01*
X16976Y119457D01*
X17925Y120185D01*
X18654Y121134D01*
X19111Y122239D01*
X19267Y123425D01*
X19111Y124611D01*
X18654Y125716D01*
X17925Y126665D01*
X16976Y127394D01*
X15871Y127852D01*
X14685Y128008D01*
D02*
G37*
G36*
X652075Y120305D02*
Y118610D01*
X653769D01*
X653694Y118988D01*
X653197Y119732D01*
X652453Y120230D01*
X652075Y120305D01*
D02*
G37*
G36*
X651075D02*
X650697Y120230D01*
X649953Y119732D01*
X649455Y118988D01*
X649380Y118610D01*
X651075D01*
Y120305D01*
D02*
G37*
G36*
X653769Y117610D02*
X652075D01*
Y115916D01*
X652453Y115991D01*
X653197Y116488D01*
X653694Y117232D01*
X653769Y117610D01*
D02*
G37*
G36*
X651075D02*
X649380D01*
X649455Y117232D01*
X649953Y116488D01*
X650697Y115991D01*
X651075Y115916D01*
Y117610D01*
D02*
G37*
G36*
X14685Y118008D02*
X13499Y117852D01*
X12394Y117394D01*
X11445Y116665D01*
X10717Y115717D01*
X10259Y114611D01*
X10103Y113425D01*
X10259Y112239D01*
X10717Y111134D01*
X11445Y110185D01*
X12394Y109457D01*
X13499Y108999D01*
X14685Y108843D01*
X15871Y108999D01*
X16976Y109457D01*
X17925Y110185D01*
X18654Y111134D01*
X19111Y112239D01*
X19267Y113425D01*
X19111Y114611D01*
X18654Y115717D01*
X17925Y116665D01*
X16976Y117394D01*
X15871Y117852D01*
X14685Y118008D01*
D02*
G37*
G36*
X216051Y107510D02*
Y105815D01*
X217746D01*
X217671Y106193D01*
X217173Y106937D01*
X216429Y107434D01*
X216051Y107510D01*
D02*
G37*
G36*
X215051D02*
X214673Y107434D01*
X213929Y106937D01*
X213432Y106193D01*
X213404Y106051D01*
X211754Y104401D01*
X197848D01*
X197728Y104482D01*
X197350Y104557D01*
Y102362D01*
Y100168D01*
X197728Y100243D01*
X197848Y100323D01*
X212598D01*
X213379Y100478D01*
X214040Y100920D01*
X216287Y103167D01*
X216429Y103196D01*
X217173Y103693D01*
X217671Y104437D01*
X217746Y104815D01*
X215551D01*
Y105315D01*
X215051D01*
Y107510D01*
D02*
G37*
G36*
X24685Y118008D02*
X23499Y117852D01*
X22394Y117394D01*
X21445Y116665D01*
X20717Y115717D01*
X20259Y114611D01*
X20102Y113425D01*
X20259Y112239D01*
X20717Y111134D01*
X21445Y110185D01*
X22394Y109457D01*
X23499Y108999D01*
X24685Y108843D01*
X25871Y108999D01*
X26976Y109457D01*
X27925Y110185D01*
X28010Y110295D01*
X28711Y110975D01*
X29376Y111541D01*
X29648Y111742D01*
X29891Y111901D01*
X30092Y112011D01*
X30240Y112074D01*
X30325Y112098D01*
X30338Y112100D01*
X38585D01*
X45323Y105362D01*
X45753Y105075D01*
X46260Y104974D01*
X64967D01*
X64975Y104971D01*
X65005Y104956D01*
X65047Y104931D01*
X65087Y104904D01*
X65241Y104776D01*
X65307Y104677D01*
X66051Y104180D01*
X66929Y104005D01*
X67807Y104180D01*
X68551Y104677D01*
X69049Y105421D01*
X69223Y106299D01*
X69049Y107177D01*
X68551Y107921D01*
X67807Y108419D01*
X66929Y108593D01*
X66051Y108419D01*
X65307Y107921D01*
X65241Y107823D01*
X65231Y107813D01*
X65161Y107752D01*
X65099Y107703D01*
X65047Y107667D01*
X65005Y107642D01*
X64975Y107628D01*
X64967Y107625D01*
X46809D01*
X40071Y114362D01*
X39641Y114650D01*
X39134Y114751D01*
X30338D01*
X30325Y114752D01*
X30240Y114776D01*
X30092Y114839D01*
X29891Y114949D01*
X29648Y115108D01*
X29384Y115303D01*
X28330Y116235D01*
X28016Y116547D01*
X27925Y116665D01*
X26976Y117394D01*
X25871Y117852D01*
X24685Y118008D01*
D02*
G37*
G36*
X196350Y104557D02*
X195973Y104482D01*
X195228Y103984D01*
X194731Y103240D01*
X194656Y102862D01*
X196350D01*
Y104557D01*
D02*
G37*
G36*
Y101862D02*
X194656D01*
X194731Y101484D01*
X195228Y100740D01*
X195973Y100243D01*
X196350Y100168D01*
Y101862D01*
D02*
G37*
G36*
X24685Y108008D02*
X23499Y107852D01*
X22394Y107394D01*
X21445Y106666D01*
X20717Y105717D01*
X20259Y104611D01*
X20102Y103425D01*
X20259Y102239D01*
X20717Y101134D01*
X21445Y100185D01*
X22394Y99457D01*
X23499Y98999D01*
X24685Y98843D01*
X25871Y98999D01*
X26976Y99457D01*
X27925Y100185D01*
X28654Y101134D01*
X29111Y102239D01*
X29267Y103425D01*
X29111Y104611D01*
X28654Y105717D01*
X27925Y106666D01*
X26976Y107394D01*
X25871Y107852D01*
X24685Y108008D01*
D02*
G37*
G36*
X14685D02*
X13499Y107852D01*
X12394Y107394D01*
X11445Y106666D01*
X10717Y105717D01*
X10259Y104611D01*
X10103Y103425D01*
X10259Y102239D01*
X10717Y101134D01*
X11445Y100185D01*
X12394Y99457D01*
X13499Y98999D01*
X14685Y98843D01*
X15871Y98999D01*
X16976Y99457D01*
X17925Y100185D01*
X18654Y101134D01*
X19111Y102239D01*
X19267Y103425D01*
X19111Y104611D01*
X18654Y105717D01*
X17925Y106666D01*
X16976Y107394D01*
X15871Y107852D01*
X14685Y108008D01*
D02*
G37*
G36*
X122047Y95798D02*
X121169Y95623D01*
X121049Y95543D01*
X39384D01*
X39264Y95623D01*
X38386Y95798D01*
X37508Y95623D01*
X36764Y95126D01*
X36266Y94382D01*
X36092Y93504D01*
X36266Y92626D01*
X36764Y91882D01*
X37508Y91385D01*
X38386Y91210D01*
X39264Y91385D01*
X39384Y91465D01*
X121049D01*
X121169Y91385D01*
X122047Y91210D01*
X122925Y91385D01*
X123669Y91882D01*
X124167Y92626D01*
X124341Y93504D01*
X124167Y94382D01*
X123669Y95126D01*
X122925Y95623D01*
X122047Y95798D01*
D02*
G37*
G36*
X15185Y97942D02*
Y93925D01*
X19202D01*
X19111Y94611D01*
X18654Y95716D01*
X17925Y96666D01*
X16976Y97394D01*
X15871Y97852D01*
X15185Y97942D01*
D02*
G37*
G36*
X14185D02*
X13499Y97852D01*
X12394Y97394D01*
X11445Y96666D01*
X10717Y95716D01*
X10259Y94611D01*
X10168Y93925D01*
X14185D01*
Y97942D01*
D02*
G37*
G36*
X19202Y92925D02*
X15185D01*
Y88908D01*
X15871Y88999D01*
X16976Y89457D01*
X17925Y90185D01*
X18654Y91134D01*
X19111Y92239D01*
X19202Y92925D01*
D02*
G37*
G36*
X14185D02*
X10168D01*
X10259Y92239D01*
X10717Y91134D01*
X11445Y90185D01*
X12394Y89457D01*
X13499Y88999D01*
X14185Y88908D01*
Y92925D01*
D02*
G37*
G36*
X24685Y98008D02*
X23499Y97852D01*
X22394Y97394D01*
X21445Y96666D01*
X20717Y95716D01*
X20259Y94611D01*
X20102Y93425D01*
X20259Y92239D01*
X20717Y91134D01*
X21445Y90185D01*
X22394Y89457D01*
X23499Y88999D01*
X24685Y88843D01*
X25871Y88999D01*
X26976Y89457D01*
X27925Y90185D01*
X28654Y91134D01*
X29111Y92239D01*
X29267Y93425D01*
X29111Y94611D01*
X28654Y95716D01*
X27925Y96666D01*
X26976Y97394D01*
X25871Y97852D01*
X24685Y98008D01*
D02*
G37*
G36*
X15185Y87942D02*
Y83925D01*
X19202D01*
X19111Y84611D01*
X18654Y85716D01*
X17925Y86665D01*
X16976Y87394D01*
X15871Y87852D01*
X15185Y87942D01*
D02*
G37*
G36*
X14185D02*
X13499Y87852D01*
X12394Y87394D01*
X11445Y86665D01*
X10717Y85716D01*
X10259Y84611D01*
X10168Y83925D01*
X14185D01*
Y87942D01*
D02*
G37*
G36*
X378059Y82903D02*
Y81209D01*
X379754D01*
X379679Y81587D01*
X379181Y82331D01*
X378437Y82828D01*
X378059Y82903D01*
D02*
G37*
G36*
X377059D02*
X376681Y82828D01*
X375937Y82331D01*
X375440Y81587D01*
X375364Y81209D01*
X377059D01*
Y82903D01*
D02*
G37*
G36*
X43228Y89149D02*
X42042Y88993D01*
X40937Y88535D01*
X39988Y87807D01*
X39260Y86858D01*
X38802Y85753D01*
X38646Y84567D01*
X38802Y83381D01*
X39260Y82276D01*
X39988Y81327D01*
X40937Y80598D01*
X42042Y80141D01*
X43228Y79984D01*
X44414Y80141D01*
X45520Y80598D01*
X46469Y81327D01*
X47197Y82276D01*
X47655Y83381D01*
X47811Y84567D01*
X47655Y85753D01*
X47197Y86858D01*
X46469Y87807D01*
X45520Y88535D01*
X44414Y88993D01*
X43228Y89149D01*
D02*
G37*
G36*
X19202Y82925D02*
X15185D01*
Y78908D01*
X15871Y78999D01*
X16976Y79457D01*
X17925Y80185D01*
X18654Y81134D01*
X19111Y82239D01*
X19202Y82925D01*
D02*
G37*
G36*
X14185D02*
X10168D01*
X10259Y82239D01*
X10717Y81134D01*
X11445Y80185D01*
X12394Y79457D01*
X13499Y78999D01*
X14185Y78908D01*
Y82925D01*
D02*
G37*
G36*
X580020Y97471D02*
X579142Y97297D01*
X578398Y96799D01*
X577900Y96055D01*
X577726Y95177D01*
X577900Y94299D01*
X578398Y93555D01*
X578496Y93489D01*
X578506Y93479D01*
X578567Y93409D01*
X578616Y93347D01*
X578652Y93295D01*
X578677Y93253D01*
X578691Y93223D01*
X578694Y93215D01*
Y82966D01*
X578691Y82958D01*
X578677Y82928D01*
X578652Y82886D01*
X578624Y82846D01*
X578496Y82692D01*
X578398Y82626D01*
X577900Y81882D01*
X577726Y81004D01*
X577900Y80126D01*
X578398Y79382D01*
X579142Y78885D01*
X580020Y78710D01*
X580898Y78885D01*
X581642Y79382D01*
X581868Y79720D01*
X582469D01*
X582630Y79480D01*
X583374Y78983D01*
X583752Y78908D01*
Y81102D01*
Y83297D01*
X583374Y83222D01*
X582630Y82724D01*
X582404Y82386D01*
X581802D01*
X581642Y82626D01*
X581543Y82692D01*
X581534Y82702D01*
X581472Y82772D01*
X581423Y82834D01*
X581387Y82886D01*
X581363Y82928D01*
X581348Y82958D01*
X581345Y82966D01*
Y93215D01*
X581348Y93223D01*
X581363Y93253D01*
X581387Y93295D01*
X581415Y93335D01*
X581543Y93489D01*
X581642Y93555D01*
X582139Y94299D01*
X582314Y95177D01*
X582139Y96055D01*
X581642Y96799D01*
X580898Y97297D01*
X580020Y97471D01*
D02*
G37*
G36*
X24685Y88008D02*
X23499Y87852D01*
X22394Y87394D01*
X21445Y86665D01*
X20717Y85716D01*
X20259Y84611D01*
X20102Y83425D01*
X20259Y82239D01*
X20717Y81134D01*
X21445Y80185D01*
X22394Y79457D01*
X23499Y78999D01*
X24685Y78843D01*
X25871Y78999D01*
X26976Y79457D01*
X27925Y80185D01*
X28654Y81134D01*
X29111Y82239D01*
X29267Y83425D01*
X29111Y84611D01*
X28654Y85716D01*
X27925Y86665D01*
X26976Y87394D01*
X25871Y87852D01*
X24685Y88008D01*
D02*
G37*
G36*
X379754Y80209D02*
X378059D01*
Y78514D01*
X378437Y78589D01*
X379181Y79087D01*
X379679Y79831D01*
X379754Y80209D01*
D02*
G37*
G36*
X377059D02*
X375364D01*
X375440Y79831D01*
X375937Y79087D01*
X376681Y78589D01*
X377059Y78514D01*
Y80209D01*
D02*
G37*
G36*
X462000Y85583D02*
X460814Y85426D01*
X459709Y84969D01*
X458760Y84240D01*
X458031Y83291D01*
X457574Y82186D01*
X457417Y81000D01*
X457574Y79814D01*
X458031Y78709D01*
X458760Y77760D01*
X459709Y77031D01*
X460814Y76574D01*
X462000Y76417D01*
X463186Y76574D01*
X464291Y77031D01*
X465240Y77760D01*
X465969Y78709D01*
X466426Y79814D01*
X466582Y81000D01*
X466426Y82186D01*
X465969Y83291D01*
X465240Y84240D01*
X464291Y84969D01*
X463186Y85426D01*
X462000Y85583D01*
D02*
G37*
G36*
X452000D02*
X450814Y85426D01*
X449709Y84969D01*
X448760Y84240D01*
X448031Y83291D01*
X447574Y82186D01*
X447417Y81000D01*
X447574Y79814D01*
X448031Y78709D01*
X448760Y77760D01*
X449709Y77031D01*
X450814Y76574D01*
X452000Y76417D01*
X453186Y76574D01*
X454291Y77031D01*
X455240Y77760D01*
X455969Y78709D01*
X456426Y79814D01*
X456582Y81000D01*
X456426Y82186D01*
X455969Y83291D01*
X455240Y84240D01*
X454291Y84969D01*
X453186Y85426D01*
X452000Y85583D01*
D02*
G37*
G36*
X15185Y77942D02*
Y73925D01*
X19202D01*
X19111Y74611D01*
X18654Y75716D01*
X17925Y76666D01*
X16976Y77394D01*
X15871Y77852D01*
X15185Y77942D01*
D02*
G37*
G36*
X14185D02*
X13499Y77852D01*
X12394Y77394D01*
X11445Y76666D01*
X10717Y75716D01*
X10259Y74611D01*
X10168Y73925D01*
X14185D01*
Y77942D01*
D02*
G37*
G36*
X521654Y111349D02*
X520776Y111175D01*
X520031Y110677D01*
X519534Y109933D01*
X519359Y109055D01*
X519534Y108177D01*
X520031Y107433D01*
X520130Y107367D01*
X520140Y107357D01*
X520201Y107287D01*
X520250Y107225D01*
X520286Y107173D01*
X520310Y107131D01*
X520325Y107101D01*
X520328Y107093D01*
Y75584D01*
X520325Y75576D01*
X520310Y75546D01*
X520286Y75504D01*
X520258Y75464D01*
X520130Y75310D01*
X520031Y75244D01*
X519534Y74500D01*
X519359Y73622D01*
X519534Y72744D01*
X520031Y72000D01*
X520776Y71503D01*
X521654Y71328D01*
X522532Y71503D01*
X523276Y72000D01*
X523773Y72744D01*
X523948Y73622D01*
X523773Y74500D01*
X523276Y75244D01*
X523177Y75310D01*
X523168Y75320D01*
X523106Y75390D01*
X523057Y75452D01*
X523021Y75504D01*
X522997Y75546D01*
X522982Y75576D01*
X522979Y75584D01*
Y107093D01*
X522982Y107101D01*
X522997Y107131D01*
X523021Y107173D01*
X523049Y107213D01*
X523177Y107367D01*
X523276Y107433D01*
X523773Y108177D01*
X523948Y109055D01*
X523773Y109933D01*
X523276Y110677D01*
X522532Y111175D01*
X521654Y111349D01*
D02*
G37*
G36*
X19202Y72925D02*
X15185D01*
Y68909D01*
X15871Y68999D01*
X16976Y69457D01*
X17925Y70185D01*
X18654Y71134D01*
X19111Y72239D01*
X19202Y72925D01*
D02*
G37*
G36*
X14185D02*
X10168D01*
X10259Y72239D01*
X10717Y71134D01*
X11445Y70185D01*
X12394Y69457D01*
X13499Y68999D01*
X14185Y68909D01*
Y72925D01*
D02*
G37*
G36*
X24685Y78008D02*
X23499Y77852D01*
X22394Y77394D01*
X21445Y76666D01*
X20717Y75716D01*
X20259Y74611D01*
X20102Y73425D01*
X20259Y72239D01*
X20717Y71134D01*
X21445Y70185D01*
X22394Y69457D01*
X23499Y68999D01*
X24685Y68843D01*
X25871Y68999D01*
X26976Y69457D01*
X27925Y70185D01*
X28654Y71134D01*
X29111Y72239D01*
X29267Y73425D01*
X29111Y74611D01*
X28654Y75716D01*
X27925Y76666D01*
X26976Y77394D01*
X25871Y77852D01*
X24685Y78008D01*
D02*
G37*
G36*
X15185Y67942D02*
Y63925D01*
X19202D01*
X19111Y64611D01*
X18654Y65716D01*
X17925Y66666D01*
X16976Y67394D01*
X15871Y67852D01*
X15185Y67942D01*
D02*
G37*
G36*
X14185D02*
X13499Y67852D01*
X12394Y67394D01*
X11445Y66666D01*
X10717Y65716D01*
X10259Y64611D01*
X10168Y63925D01*
X14185D01*
Y67942D01*
D02*
G37*
G36*
X53228Y69149D02*
X52042Y68993D01*
X50937Y68536D01*
X49988Y67807D01*
X49260Y66858D01*
X48802Y65753D01*
X48646Y64567D01*
X48802Y63381D01*
X49260Y62276D01*
X49988Y61327D01*
X50937Y60598D01*
X52042Y60141D01*
X53228Y59984D01*
X54414Y60141D01*
X55520Y60598D01*
X56469Y61327D01*
X57197Y62276D01*
X57655Y63381D01*
X57811Y64567D01*
X57655Y65753D01*
X57197Y66858D01*
X56469Y67807D01*
X55520Y68536D01*
X54414Y68993D01*
X53228Y69149D01*
D02*
G37*
G36*
X19202Y62925D02*
X15185D01*
Y58908D01*
X15871Y58999D01*
X16976Y59457D01*
X17925Y60185D01*
X18654Y61134D01*
X19111Y62239D01*
X19202Y62925D01*
D02*
G37*
G36*
X14185D02*
X10168D01*
X10259Y62239D01*
X10717Y61134D01*
X11445Y60185D01*
X12394Y59457D01*
X13499Y58999D01*
X14185Y58908D01*
Y62925D01*
D02*
G37*
G36*
X24685Y68008D02*
X23499Y67852D01*
X22394Y67394D01*
X21445Y66666D01*
X20717Y65716D01*
X20259Y64611D01*
X20102Y63425D01*
X20259Y62239D01*
X20717Y61134D01*
X21445Y60185D01*
X22394Y59457D01*
X23499Y58999D01*
X24685Y58843D01*
X25871Y58999D01*
X26976Y59457D01*
X27925Y60185D01*
X28654Y61134D01*
X29111Y62239D01*
X29267Y63425D01*
X29111Y64611D01*
X28654Y65716D01*
X27925Y66666D01*
X26976Y67394D01*
X25871Y67852D01*
X24685Y68008D01*
D02*
G37*
G36*
X15185Y57942D02*
Y53925D01*
X19202D01*
X19111Y54611D01*
X18654Y55716D01*
X17925Y56665D01*
X16976Y57394D01*
X15871Y57852D01*
X15185Y57942D01*
D02*
G37*
G36*
X14185D02*
X13499Y57852D01*
X12394Y57394D01*
X11445Y56665D01*
X10717Y55716D01*
X10259Y54611D01*
X10168Y53925D01*
X14185D01*
Y57942D01*
D02*
G37*
G36*
X226878Y54713D02*
Y50697D01*
X230895D01*
X230804Y51383D01*
X230346Y52488D01*
X229618Y53437D01*
X228669Y54165D01*
X227564Y54623D01*
X226878Y54713D01*
D02*
G37*
G36*
X225878D02*
X225192Y54623D01*
X224087Y54165D01*
X223138Y53437D01*
X222409Y52488D01*
X221952Y51383D01*
X221861Y50697D01*
X225878D01*
Y54713D01*
D02*
G37*
G36*
X19202Y52925D02*
X15185D01*
Y48908D01*
X15871Y48999D01*
X16976Y49457D01*
X17925Y50185D01*
X18654Y51134D01*
X19111Y52239D01*
X19202Y52925D01*
D02*
G37*
G36*
X14185D02*
X10168D01*
X10259Y52239D01*
X10717Y51134D01*
X11445Y50185D01*
X12394Y49457D01*
X13499Y48999D01*
X14185Y48908D01*
Y52925D01*
D02*
G37*
G36*
X24685Y58008D02*
X23499Y57852D01*
X22394Y57394D01*
X21445Y56665D01*
X20717Y55716D01*
X20259Y54611D01*
X20102Y53425D01*
X20259Y52239D01*
X20717Y51134D01*
X21445Y50185D01*
X22394Y49457D01*
X23499Y48999D01*
X24685Y48843D01*
X25871Y48999D01*
X26976Y49457D01*
X27925Y50185D01*
X28654Y51134D01*
X29111Y52239D01*
X29267Y53425D01*
X29111Y54611D01*
X28654Y55716D01*
X27925Y56665D01*
X26976Y57394D01*
X25871Y57852D01*
X24685Y58008D01*
D02*
G37*
G36*
X587862Y51761D02*
Y47744D01*
X591879D01*
X591789Y48430D01*
X591331Y49535D01*
X590602Y50484D01*
X589653Y51213D01*
X588548Y51670D01*
X587862Y51761D01*
D02*
G37*
G36*
X586862Y51761D02*
X586176Y51670D01*
X585071Y51213D01*
X584122Y50484D01*
X583394Y49535D01*
X582936Y48430D01*
X582845Y47744D01*
X586862D01*
Y51761D01*
D02*
G37*
G36*
X230895Y49697D02*
X226878D01*
Y45680D01*
X227564Y45770D01*
X228669Y46228D01*
X229618Y46957D01*
X230346Y47906D01*
X230804Y49011D01*
X230895Y49697D01*
D02*
G37*
G36*
X225878D02*
X221861D01*
X221952Y49011D01*
X222409Y47906D01*
X223138Y46957D01*
X224087Y46228D01*
X225192Y45770D01*
X225878Y45680D01*
Y49697D01*
D02*
G37*
G36*
X591879Y46744D02*
X587862D01*
Y42727D01*
X588548Y42818D01*
X589653Y43275D01*
X590602Y44004D01*
X591331Y44953D01*
X591789Y46058D01*
X591879Y46744D01*
D02*
G37*
G36*
X586862D02*
X582845D01*
X582936Y46058D01*
X583394Y44953D01*
X584122Y44004D01*
X585071Y43275D01*
X586176Y42818D01*
X586862Y42727D01*
Y46744D01*
D02*
G37*
G36*
X621906Y51787D02*
X612819D01*
Y42701D01*
X621906D01*
Y51787D01*
D02*
G37*
G36*
X607362Y51827D02*
X606176Y51670D01*
X605071Y51213D01*
X604122Y50484D01*
X603394Y49535D01*
X602936Y48430D01*
X602780Y47244D01*
X602936Y46058D01*
X603394Y44953D01*
X604122Y44004D01*
X605071Y43275D01*
X606176Y42818D01*
X607362Y42662D01*
X608548Y42818D01*
X609653Y43275D01*
X610603Y44004D01*
X611331Y44953D01*
X611789Y46058D01*
X611945Y47244D01*
X611789Y48430D01*
X611331Y49535D01*
X610603Y50484D01*
X609653Y51213D01*
X608548Y51670D01*
X607362Y51827D01*
D02*
G37*
G36*
X424831Y47239D02*
Y41839D01*
X430231D01*
X430166Y42499D01*
X429828Y43615D01*
X429278Y44644D01*
X428538Y45546D01*
X427636Y46286D01*
X426608Y46836D01*
X425492Y47174D01*
X424831Y47239D01*
D02*
G37*
G36*
X423831D02*
X423170Y47174D01*
X422054Y46836D01*
X421025Y46286D01*
X420123Y45546D01*
X419383Y44644D01*
X418834Y43615D01*
X418495Y42499D01*
X418430Y41839D01*
X423831D01*
Y47239D01*
D02*
G37*
G36*
X364831D02*
Y41839D01*
X370231D01*
X370166Y42499D01*
X369828Y43615D01*
X369278Y44644D01*
X368538Y45546D01*
X367636Y46286D01*
X366608Y46836D01*
X365492Y47174D01*
X364831Y47239D01*
D02*
G37*
G36*
X363831D02*
X363170Y47174D01*
X362054Y46836D01*
X361025Y46286D01*
X360123Y45546D01*
X359384Y44644D01*
X358834Y43615D01*
X358495Y42499D01*
X358430Y41839D01*
X363831D01*
Y47239D01*
D02*
G37*
G36*
X304831D02*
Y41839D01*
X310231D01*
X310166Y42499D01*
X309828Y43615D01*
X309278Y44644D01*
X308538Y45546D01*
X307636Y46286D01*
X306608Y46836D01*
X305491Y47174D01*
X304831Y47239D01*
D02*
G37*
G36*
X303831D02*
X303170Y47174D01*
X302054Y46836D01*
X301025Y46286D01*
X300124Y45546D01*
X299383Y44644D01*
X298834Y43615D01*
X298495Y42499D01*
X298430Y41839D01*
X303831D01*
Y47239D01*
D02*
G37*
G36*
X430231Y40839D02*
X424831D01*
Y35438D01*
X425492Y35503D01*
X426608Y35842D01*
X427636Y36391D01*
X428538Y37131D01*
X429278Y38033D01*
X429828Y39062D01*
X430166Y40178D01*
X430231Y40839D01*
D02*
G37*
G36*
X423831D02*
X418430D01*
X418495Y40178D01*
X418834Y39062D01*
X419383Y38033D01*
X420123Y37131D01*
X421025Y36391D01*
X422054Y35842D01*
X423170Y35503D01*
X423831Y35438D01*
Y40839D01*
D02*
G37*
G36*
X370231D02*
X364831D01*
Y35438D01*
X365492Y35503D01*
X366608Y35842D01*
X367636Y36391D01*
X368538Y37131D01*
X369278Y38033D01*
X369828Y39062D01*
X370166Y40178D01*
X370231Y40839D01*
D02*
G37*
G36*
X363831D02*
X358430D01*
X358495Y40178D01*
X358834Y39062D01*
X359384Y38033D01*
X360123Y37131D01*
X361025Y36391D01*
X362054Y35842D01*
X363170Y35503D01*
X363831Y35438D01*
Y40839D01*
D02*
G37*
G36*
X310231D02*
X304831D01*
Y35438D01*
X305491Y35503D01*
X306608Y35842D01*
X307636Y36391D01*
X308538Y37131D01*
X309278Y38033D01*
X309828Y39062D01*
X310166Y40178D01*
X310231Y40839D01*
D02*
G37*
G36*
X303831D02*
X298430D01*
X298495Y40178D01*
X298834Y39062D01*
X299383Y38033D01*
X300124Y37131D01*
X301025Y36391D01*
X302054Y35842D01*
X303170Y35503D01*
X303831Y35438D01*
Y40839D01*
D02*
G37*
G36*
X404331Y47289D02*
X403170Y47174D01*
X402054Y46836D01*
X401025Y46286D01*
X400124Y45546D01*
X399383Y44644D01*
X398834Y43615D01*
X398495Y42499D01*
X398381Y41339D01*
X398495Y40178D01*
X398834Y39062D01*
X399383Y38033D01*
X400124Y37131D01*
X401025Y36391D01*
X402054Y35842D01*
X403170Y35503D01*
X404331Y35389D01*
X405491Y35503D01*
X406608Y35842D01*
X407636Y36391D01*
X408538Y37131D01*
X409278Y38033D01*
X409828Y39062D01*
X410166Y40178D01*
X410281Y41339D01*
X410166Y42499D01*
X409828Y43615D01*
X409278Y44644D01*
X408538Y45546D01*
X407636Y46286D01*
X406608Y46836D01*
X405491Y47174D01*
X404331Y47289D01*
D02*
G37*
G36*
X384331D02*
X383170Y47174D01*
X382054Y46836D01*
X381025Y46286D01*
X380123Y45546D01*
X379383Y44644D01*
X378834Y43615D01*
X378495Y42499D01*
X378381Y41339D01*
X378495Y40178D01*
X378834Y39062D01*
X379383Y38033D01*
X380123Y37131D01*
X381025Y36391D01*
X382054Y35842D01*
X383170Y35503D01*
X384331Y35389D01*
X385491Y35503D01*
X386608Y35842D01*
X387636Y36391D01*
X388538Y37131D01*
X389278Y38033D01*
X389828Y39062D01*
X390166Y40178D01*
X390281Y41339D01*
X390166Y42499D01*
X389828Y43615D01*
X389278Y44644D01*
X388538Y45546D01*
X387636Y46286D01*
X386608Y46836D01*
X385491Y47174D01*
X384331Y47289D01*
D02*
G37*
G36*
X344331D02*
X343170Y47174D01*
X342054Y46836D01*
X341025Y46286D01*
X340124Y45546D01*
X339384Y44644D01*
X338834Y43615D01*
X338495Y42499D01*
X338381Y41339D01*
X338495Y40178D01*
X338834Y39062D01*
X339384Y38033D01*
X340124Y37131D01*
X341025Y36391D01*
X342054Y35842D01*
X343170Y35503D01*
X344331Y35389D01*
X345492Y35503D01*
X346608Y35842D01*
X347636Y36391D01*
X348538Y37131D01*
X349278Y38033D01*
X349828Y39062D01*
X350166Y40178D01*
X350281Y41339D01*
X350166Y42499D01*
X349828Y43615D01*
X349278Y44644D01*
X348538Y45546D01*
X347636Y46286D01*
X346608Y46836D01*
X345492Y47174D01*
X344331Y47289D01*
D02*
G37*
G36*
X324331D02*
X323170Y47174D01*
X322054Y46836D01*
X321025Y46286D01*
X320124Y45546D01*
X319384Y44644D01*
X318834Y43615D01*
X318495Y42499D01*
X318381Y41339D01*
X318495Y40178D01*
X318834Y39062D01*
X319384Y38033D01*
X320124Y37131D01*
X321025Y36391D01*
X322054Y35842D01*
X323170Y35503D01*
X324331Y35389D01*
X325491Y35503D01*
X326608Y35842D01*
X327636Y36391D01*
X328538Y37131D01*
X329278Y38033D01*
X329828Y39062D01*
X330166Y40178D01*
X330281Y41339D01*
X330166Y42499D01*
X329828Y43615D01*
X329278Y44644D01*
X328538Y45546D01*
X327636Y46286D01*
X326608Y46836D01*
X325491Y47174D01*
X324331Y47289D01*
D02*
G37*
G36*
X284331D02*
X283170Y47174D01*
X282054Y46836D01*
X281025Y46286D01*
X280123Y45546D01*
X279383Y44644D01*
X278834Y43615D01*
X278495Y42499D01*
X278381Y41339D01*
X278495Y40178D01*
X278834Y39062D01*
X279383Y38033D01*
X280123Y37131D01*
X281025Y36391D01*
X282054Y35842D01*
X283170Y35503D01*
X284331Y35389D01*
X285491Y35503D01*
X286608Y35842D01*
X287636Y36391D01*
X288538Y37131D01*
X289278Y38033D01*
X289828Y39062D01*
X290166Y40178D01*
X290281Y41339D01*
X290166Y42499D01*
X289828Y43615D01*
X289278Y44644D01*
X288538Y45546D01*
X287636Y46286D01*
X286608Y46836D01*
X285491Y47174D01*
X284331Y47289D01*
D02*
G37*
G36*
X264331D02*
X263170Y47174D01*
X262054Y46836D01*
X261025Y46286D01*
X260123Y45546D01*
X259384Y44644D01*
X258834Y43615D01*
X258495Y42499D01*
X258381Y41339D01*
X258495Y40178D01*
X258834Y39062D01*
X259384Y38033D01*
X260123Y37131D01*
X261025Y36391D01*
X262054Y35842D01*
X263170Y35503D01*
X264331Y35389D01*
X265492Y35503D01*
X266608Y35842D01*
X267636Y36391D01*
X268538Y37131D01*
X269278Y38033D01*
X269828Y39062D01*
X270166Y40178D01*
X270281Y41339D01*
X270166Y42499D01*
X269828Y43615D01*
X269278Y44644D01*
X268538Y45546D01*
X267636Y46286D01*
X266608Y46836D01*
X265492Y47174D01*
X264331Y47289D01*
D02*
G37*
G36*
X478303Y71807D02*
X468153D01*
X463041Y66694D01*
X454490D01*
X436031Y48236D01*
Y32480D01*
X452756D01*
Y53635D01*
X456693Y57087D01*
X478303D01*
Y71807D01*
D02*
G37*
G36*
X690009Y35433D02*
X687944D01*
X685897Y35164D01*
X683904Y34629D01*
X681996Y33839D01*
X680208Y32807D01*
X678571Y31550D01*
X677111Y30091D01*
X675854Y28453D01*
X674822Y26665D01*
X674032Y24758D01*
X673498Y22764D01*
X673228Y20717D01*
Y18653D01*
X673498Y16606D01*
X674032Y14612D01*
X674822Y12705D01*
X675854Y10917D01*
X677111Y9279D01*
X678571Y7820D01*
X680208Y6563D01*
X681996Y5531D01*
X683904Y4741D01*
X685897Y4206D01*
X687944Y3937D01*
X690009D01*
X692055Y4206D01*
X694049Y4741D01*
X695957Y5531D01*
X697744Y6563D01*
X699382Y7820D01*
X700842Y9279D01*
X702099Y10917D01*
X703131Y12705D01*
X703921Y14612D01*
X704455Y16606D01*
X704724Y18653D01*
Y20717D01*
X704455Y22764D01*
X703921Y24758D01*
X703131Y26665D01*
X702099Y28453D01*
X700842Y30091D01*
X699382Y31550D01*
X697744Y32807D01*
X695957Y33839D01*
X694049Y34629D01*
X692055Y35164D01*
X690009Y35433D01*
D02*
G37*
G36*
X20717D02*
X18653D01*
X16606Y35164D01*
X14612Y34629D01*
X12705Y33839D01*
X10917Y32807D01*
X9279Y31550D01*
X7820Y30091D01*
X6563Y28453D01*
X5531Y26665D01*
X4741Y24758D01*
X4206Y22764D01*
X3937Y20717D01*
Y18653D01*
X4206Y16606D01*
X4741Y14612D01*
X5531Y12705D01*
X6563Y10917D01*
X7820Y9279D01*
X9279Y7820D01*
X10917Y6563D01*
X12705Y5531D01*
X14612Y4741D01*
X16606Y4206D01*
X18653Y3937D01*
X20717D01*
X22764Y4206D01*
X24758Y4741D01*
X26665Y5531D01*
X28453Y6563D01*
X30091Y7820D01*
X31550Y9279D01*
X32807Y10917D01*
X33839Y12705D01*
X34629Y14612D01*
X35164Y16606D01*
X35433Y18653D01*
Y20717D01*
X35164Y22764D01*
X34629Y24758D01*
X33839Y26665D01*
X32807Y28453D01*
X31550Y30091D01*
X30091Y31550D01*
X28453Y32807D01*
X26665Y33839D01*
X24758Y34629D01*
X22764Y35164D01*
X20717Y35433D01*
D02*
G37*
%LPD*%
G36*
X693551Y139908D02*
X692998Y139966D01*
X692017Y140015D01*
X691589Y140006D01*
X691203Y139974D01*
X690860Y139920D01*
X690558Y139844D01*
X690298Y139745D01*
X690081Y139624D01*
X689905Y139481D01*
X689528Y139952D01*
X689645Y140098D01*
X689756Y140297D01*
X689862Y140548D01*
X689963Y140852D01*
X690058Y141208D01*
X690231Y142079D01*
X690383Y143160D01*
X690451Y143780D01*
X693551Y139908D01*
D02*
G37*
G36*
X693941Y129882D02*
X693354Y129881D01*
X691875Y129790D01*
X691476Y129730D01*
X691125Y129656D01*
X690820Y129567D01*
X690563Y129464D01*
X690352Y129346D01*
X690189Y129213D01*
X689764Y129638D01*
X689897Y129801D01*
X690015Y130011D01*
X690118Y130269D01*
X690207Y130574D01*
X690281Y130925D01*
X690341Y131324D01*
X690416Y132263D01*
X690433Y133390D01*
X693941Y129882D01*
D02*
G37*
G36*
Y119882D02*
X693354Y119881D01*
X691875Y119790D01*
X691476Y119730D01*
X691125Y119656D01*
X690820Y119567D01*
X690563Y119464D01*
X690352Y119346D01*
X690189Y119213D01*
X689764Y119638D01*
X689897Y119801D01*
X690015Y120011D01*
X690118Y120269D01*
X690207Y120574D01*
X690281Y120925D01*
X690341Y121324D01*
X690416Y122263D01*
X690433Y123390D01*
X693941Y119882D01*
D02*
G37*
G36*
X680008Y135716D02*
X679550Y134611D01*
X679394Y133425D01*
X679550Y132239D01*
X680008Y131134D01*
X680736Y130185D01*
X680788Y130145D01*
X680627Y129672D01*
X680315D01*
X679808Y129571D01*
X679378Y129284D01*
X662837Y112743D01*
X657003D01*
X656812Y113205D01*
X679605Y135998D01*
X680008Y135716D01*
D02*
G37*
G36*
X679825Y125275D02*
X679550Y124611D01*
X679394Y123425D01*
X679550Y122239D01*
X680008Y121134D01*
X680625Y120329D01*
X680428Y119829D01*
X675984D01*
X675477Y119729D01*
X675047Y119441D01*
X666774Y111168D01*
X665664D01*
X665473Y111630D01*
X679401Y125558D01*
X679825Y125275D01*
D02*
G37*
G36*
X680788Y116705D02*
X680736Y116665D01*
X680008Y115717D01*
X679550Y114611D01*
X679394Y113425D01*
X679550Y112239D01*
X680008Y111134D01*
X680736Y110185D01*
X680890Y110067D01*
X680729Y109593D01*
X669601D01*
X669410Y110055D01*
X676533Y117178D01*
X680627D01*
X680788Y116705D01*
D02*
G37*
G36*
X608162Y109361D02*
X608050Y109470D01*
X607829Y109654D01*
X607721Y109729D01*
X607613Y109792D01*
X607506Y109844D01*
X607401Y109885D01*
X607297Y109913D01*
X607194Y109931D01*
X607092Y109936D01*
Y110536D01*
X607194Y110542D01*
X607297Y110559D01*
X607401Y110588D01*
X607506Y110628D01*
X607613Y110680D01*
X607721Y110743D01*
X607829Y110818D01*
X607939Y110904D01*
X608050Y111002D01*
X608162Y111111D01*
Y109361D01*
D02*
G37*
G36*
X693941Y109882D02*
X693354Y109881D01*
X691875Y109790D01*
X691476Y109730D01*
X691125Y109656D01*
X690820Y109567D01*
X690563Y109464D01*
X690352Y109346D01*
X690189Y109213D01*
X689764Y109637D01*
X689897Y109801D01*
X690015Y110011D01*
X690118Y110269D01*
X690207Y110574D01*
X690281Y110925D01*
X690341Y111324D01*
X690416Y112263D01*
X690433Y113390D01*
X693941Y109882D01*
D02*
G37*
G36*
X620400Y106294D02*
X620332Y106218D01*
X620271Y106133D01*
X620218Y106039D01*
X620171Y105936D01*
X620133Y105824D01*
X620101Y105703D01*
X620077Y105573D01*
X620061Y105435D01*
X620051Y105287D01*
X620049Y105131D01*
X618812Y106368D01*
X618968Y106370D01*
X619255Y106396D01*
X619384Y106420D01*
X619505Y106452D01*
X619617Y106490D01*
X619720Y106536D01*
X619814Y106590D01*
X619899Y106651D01*
X619976Y106719D01*
X620400Y106294D01*
D02*
G37*
G36*
X609967Y103538D02*
X609899Y103462D01*
X609838Y103377D01*
X609785Y103283D01*
X609738Y103180D01*
X609700Y103068D01*
X609668Y102947D01*
X609644Y102818D01*
X609627Y102679D01*
X609618Y102531D01*
X609616Y102375D01*
X608379Y103612D01*
X608535Y103614D01*
X608821Y103640D01*
X608951Y103664D01*
X609072Y103696D01*
X609184Y103735D01*
X609287Y103780D01*
X609381Y103834D01*
X609466Y103895D01*
X609542Y103963D01*
X609967Y103538D01*
D02*
G37*
G36*
X604568Y103689D02*
X604668Y103597D01*
X604768Y103516D01*
X604870Y103446D01*
X604973Y103387D01*
X605077Y103339D01*
X605183Y103301D01*
X605290Y103274D01*
X605398Y103258D01*
X605507Y103253D01*
Y102653D01*
X605398Y102647D01*
X605290Y102631D01*
X605183Y102604D01*
X605077Y102567D01*
X604973Y102518D01*
X604870Y102459D01*
X604768Y102389D01*
X604668Y102308D01*
X604568Y102217D01*
X604471Y102114D01*
Y103791D01*
X604568Y103689D01*
D02*
G37*
G36*
X693941Y99882D02*
X693354Y99881D01*
X691875Y99790D01*
X691476Y99730D01*
X691125Y99656D01*
X690820Y99567D01*
X690563Y99464D01*
X690352Y99346D01*
X690189Y99213D01*
X689764Y99638D01*
X689897Y99801D01*
X690015Y100011D01*
X690118Y100269D01*
X690207Y100574D01*
X690281Y100925D01*
X690341Y101324D01*
X690416Y102263D01*
X690433Y103390D01*
X693941Y99882D01*
D02*
G37*
G36*
X609376Y98716D02*
X609308Y98639D01*
X609247Y98554D01*
X609194Y98460D01*
X609148Y98357D01*
X609109Y98245D01*
X609078Y98124D01*
X609054Y97995D01*
X609037Y97856D01*
X609028Y97708D01*
X609025Y97552D01*
X607788Y98789D01*
X607945Y98791D01*
X608231Y98817D01*
X608361Y98842D01*
X608482Y98873D01*
X608594Y98912D01*
X608697Y98958D01*
X608790Y99011D01*
X608876Y99072D01*
X608952Y99140D01*
X609376Y98716D01*
D02*
G37*
G36*
X692996Y90020D02*
X692495Y90154D01*
X691597Y90324D01*
X691201Y90362D01*
X690839Y90367D01*
X690512Y90341D01*
X690220Y90283D01*
X689963Y90192D01*
X689740Y90070D01*
X689552Y89916D01*
X689246Y90458D01*
X689326Y90564D01*
X689417Y90732D01*
X689520Y90963D01*
X689759Y91614D01*
X690201Y93060D01*
X690553Y94337D01*
X692996Y90020D01*
D02*
G37*
G36*
X589581Y90675D02*
X589467Y90574D01*
X589365Y90473D01*
X589275Y90372D01*
X589197Y90270D01*
X589131Y90168D01*
X589077Y90065D01*
X589035Y89962D01*
X589005Y89859D01*
X588987Y89754D01*
X588981Y89650D01*
X588381Y89699D01*
X588376Y89798D01*
X588359Y89900D01*
X588332Y90005D01*
X588294Y90112D01*
X588245Y90222D01*
X588185Y90335D01*
X588115Y90450D01*
X588033Y90568D01*
X587837Y90813D01*
X589581Y90675D01*
D02*
G37*
G36*
X602734Y89546D02*
X602550Y89325D01*
X602476Y89217D01*
X602412Y89109D01*
X602360Y89003D01*
X602320Y88897D01*
X602291Y88793D01*
X602274Y88690D01*
X602269Y88588D01*
X601669D01*
X601663Y88690D01*
X601646Y88793D01*
X601617Y88897D01*
X601577Y89003D01*
X601525Y89109D01*
X601462Y89217D01*
X601387Y89325D01*
X601300Y89435D01*
X601203Y89546D01*
X601093Y89658D01*
X602844D01*
X602734Y89546D01*
D02*
G37*
G36*
X604318Y86348D02*
X604162Y86346D01*
X603875Y86320D01*
X603746Y86296D01*
X603625Y86265D01*
X603513Y86226D01*
X603410Y86180D01*
X603316Y86127D01*
X603231Y86066D01*
X603155Y85998D01*
X602730Y86422D01*
X602798Y86498D01*
X602859Y86584D01*
X602912Y86677D01*
X602958Y86781D01*
X602997Y86892D01*
X603028Y87013D01*
X603053Y87143D01*
X603069Y87282D01*
X603079Y87429D01*
X603081Y87586D01*
X604318Y86348D01*
D02*
G37*
G36*
X607101Y108908D02*
X607131Y108893D01*
X607173Y108869D01*
X607213Y108841D01*
X607367Y108712D01*
X607433Y108614D01*
X608127Y108150D01*
X608213Y107999D01*
X608323Y107638D01*
X605251Y104567D01*
X605165Y104575D01*
X604421Y105072D01*
X603543Y105247D01*
X602665Y105072D01*
X601921Y104575D01*
X601424Y103831D01*
X601249Y102953D01*
X601424Y102075D01*
X601921Y101331D01*
X602665Y100833D01*
X603543Y100659D01*
X604421Y100833D01*
X605165Y101331D01*
X605244Y101448D01*
X605283Y101489D01*
X605333Y101535D01*
X605377Y101570D01*
X605414Y101596D01*
X605443Y101612D01*
X605464Y101622D01*
X605478Y101627D01*
X605512D01*
X605545Y101634D01*
X605557Y101634D01*
X605593Y101643D01*
X605701Y101665D01*
X606247Y101484D01*
X606744Y100740D01*
X607438Y100276D01*
X607453Y100078D01*
X607385Y99756D01*
X606898Y99659D01*
X606153Y99161D01*
X605656Y98417D01*
X605481Y97539D01*
X605656Y96662D01*
X606153Y95917D01*
X606898Y95420D01*
X607776Y95245D01*
X608653Y95420D01*
X609398Y95917D01*
X609895Y96662D01*
X610070Y97539D01*
X610047Y97655D01*
X610047Y97669D01*
X610053Y97763D01*
X610062Y97841D01*
X610074Y97903D01*
X610086Y97950D01*
X610097Y97982D01*
X610100Y97990D01*
X611984Y99873D01*
X612560Y99742D01*
X612945Y99165D01*
X613689Y98668D01*
X614067Y98593D01*
Y100787D01*
X614567D01*
Y101287D01*
X616761D01*
X616686Y101665D01*
X616189Y102410D01*
X615613Y102795D01*
X615481Y103371D01*
X616232Y104122D01*
X616831Y104013D01*
X617177Y103496D01*
X617921Y102999D01*
X618799Y102824D01*
X619677Y102999D01*
X620421Y103496D01*
X620919Y104240D01*
X621093Y105118D01*
X621070Y105234D01*
X621070Y105248D01*
X621076Y105341D01*
X621086Y105419D01*
X621097Y105482D01*
X621109Y105529D01*
X621121Y105561D01*
X621124Y105568D01*
X622498Y106942D01*
X680318D01*
X680565Y106442D01*
X680008Y105717D01*
X679550Y104611D01*
X679394Y103425D01*
X679550Y102239D01*
X680008Y101134D01*
X680686Y100251D01*
X680564Y99751D01*
X677559D01*
X677052Y99650D01*
X676622Y99362D01*
X660887Y83628D01*
X660285D01*
X660230Y83708D01*
X660361Y84387D01*
X660677Y84598D01*
X661175Y85343D01*
X661250Y85720D01*
X656860D01*
X656936Y85343D01*
X657433Y84598D01*
X657749Y84387D01*
X657880Y83708D01*
X657825Y83628D01*
X602942D01*
X602722Y84067D01*
X602717Y84110D01*
X603880Y85274D01*
X603888Y85277D01*
X603920Y85288D01*
X603967Y85300D01*
X604015Y85309D01*
X604215Y85327D01*
X604331Y85304D01*
X605209Y85479D01*
X605953Y85976D01*
X606450Y86721D01*
X606625Y87598D01*
X606450Y88476D01*
X605953Y89221D01*
X605209Y89718D01*
X604630Y89833D01*
X604221Y90342D01*
X604263Y90551D01*
X604088Y91429D01*
X603591Y92173D01*
X602846Y92671D01*
X601968Y92845D01*
X601792Y92810D01*
X601492Y93260D01*
X601726Y93610D01*
X601801Y93988D01*
X599606D01*
Y94488D01*
X599106D01*
Y96683D01*
X598728Y96608D01*
X597984Y96110D01*
X597790Y95820D01*
X597290Y95972D01*
Y108911D01*
X607093D01*
X607101Y108908D01*
D02*
G37*
G36*
X588987Y83850D02*
X589004Y83746D01*
X589033Y83642D01*
X589073Y83537D01*
X589125Y83430D01*
X589188Y83323D01*
X589263Y83214D01*
X589349Y83104D01*
X589447Y82993D01*
X589556Y82881D01*
X587806D01*
X587915Y82993D01*
X588099Y83214D01*
X588174Y83323D01*
X588237Y83430D01*
X588289Y83537D01*
X588329Y83642D01*
X588358Y83746D01*
X588375Y83850D01*
X588381Y83952D01*
X588981D01*
X588987Y83850D01*
D02*
G37*
G36*
X594495Y83957D02*
X594427Y83881D01*
X594366Y83795D01*
X594313Y83701D01*
X594267Y83598D01*
X594228Y83486D01*
X594197Y83366D01*
X594173Y83236D01*
X594156Y83097D01*
X594146Y82950D01*
X594144Y82793D01*
X592907Y84030D01*
X593064Y84032D01*
X593350Y84059D01*
X593480Y84083D01*
X593601Y84114D01*
X593712Y84153D01*
X593815Y84199D01*
X593909Y84252D01*
X593995Y84313D01*
X594071Y84381D01*
X594495Y83957D01*
D02*
G37*
G36*
X680686Y96600D02*
X680008Y95716D01*
X679550Y94611D01*
X679394Y93425D01*
X679550Y92239D01*
X680008Y91134D01*
X680565Y90408D01*
X680318Y89908D01*
X678740D01*
X678233Y89807D01*
X677803Y89520D01*
X670711Y82428D01*
X664089D01*
X663898Y82890D01*
X678108Y97100D01*
X680564D01*
X680686Y96600D01*
D02*
G37*
G36*
X682957Y80032D02*
X682664Y80109D01*
X682385Y80162D01*
X682121Y80190D01*
X681871Y80193D01*
X681634Y80172D01*
X681412Y80125D01*
X681205Y80054D01*
X681011Y79957D01*
X680831Y79836D01*
X680666Y79690D01*
X680241Y80115D01*
X680387Y80280D01*
X680509Y80460D01*
X680605Y80653D01*
X680676Y80861D01*
X680723Y81083D01*
X680745Y81319D01*
X680741Y81570D01*
X680713Y81834D01*
X680661Y82113D01*
X680583Y82406D01*
X682957Y80032D01*
D02*
G37*
G36*
X693440Y79923D02*
X692897Y79997D01*
X691931Y80072D01*
X691509Y80072D01*
X691128Y80049D01*
X690787Y80000D01*
X690487Y79927D01*
X690227Y79830D01*
X690008Y79709D01*
X689829Y79563D01*
X689466Y80048D01*
X689577Y80187D01*
X689686Y80382D01*
X689792Y80630D01*
X689896Y80933D01*
X689997Y81290D01*
X690191Y82167D01*
X690464Y83891D01*
X693440Y79923D01*
D02*
G37*
G36*
X613267Y79315D02*
X611474Y77522D01*
X611466Y77518D01*
X611434Y77507D01*
X611387Y77495D01*
X611340Y77486D01*
X611140Y77468D01*
X611024Y77491D01*
X610146Y77316D01*
X609402Y76819D01*
X608904Y76075D01*
X608730Y75197D01*
X608836Y74660D01*
X608455Y74160D01*
X605112D01*
X605104Y74163D01*
X605074Y74178D01*
X605032Y74202D01*
X604992Y74230D01*
X604838Y74358D01*
X604772Y74457D01*
X604028Y74954D01*
X603150Y75129D01*
X602974Y75094D01*
X602673Y75544D01*
X602907Y75894D01*
X603082Y76772D01*
X603058Y76888D01*
X603059Y76902D01*
X603064Y76995D01*
X603074Y77073D01*
X603086Y77135D01*
X603098Y77182D01*
X603109Y77214D01*
X603112Y77222D01*
X605667Y79777D01*
X613076D01*
X613267Y79315D01*
D02*
G37*
G36*
X602388Y77948D02*
X602320Y77872D01*
X602259Y77787D01*
X602206Y77693D01*
X602160Y77590D01*
X602121Y77478D01*
X602090Y77357D01*
X602066Y77227D01*
X602049Y77088D01*
X602039Y76941D01*
X602037Y76784D01*
X600800Y78022D01*
X600956Y78024D01*
X601243Y78050D01*
X601373Y78074D01*
X601493Y78105D01*
X601605Y78144D01*
X601708Y78190D01*
X601802Y78243D01*
X601888Y78304D01*
X601964Y78372D01*
X602388Y77948D01*
D02*
G37*
G36*
X598845D02*
X598776Y77872D01*
X598716Y77787D01*
X598662Y77693D01*
X598616Y77590D01*
X598578Y77478D01*
X598546Y77357D01*
X598522Y77227D01*
X598505Y77088D01*
X598496Y76941D01*
X598494Y76784D01*
X597257Y78022D01*
X597413Y78024D01*
X597699Y78050D01*
X597829Y78074D01*
X597950Y78105D01*
X598062Y78144D01*
X598165Y78190D01*
X598259Y78243D01*
X598344Y78304D01*
X598420Y78372D01*
X598845Y77948D01*
D02*
G37*
G36*
X612624Y76373D02*
X612556Y76297D01*
X612495Y76212D01*
X612442Y76118D01*
X612396Y76015D01*
X612357Y75903D01*
X612326Y75782D01*
X612302Y75652D01*
X612285Y75513D01*
X612276Y75366D01*
X612274Y75209D01*
X611036Y76447D01*
X611193Y76449D01*
X611479Y76475D01*
X611609Y76499D01*
X611730Y76530D01*
X611841Y76569D01*
X611944Y76615D01*
X612039Y76669D01*
X612124Y76729D01*
X612200Y76797D01*
X612624Y76373D01*
D02*
G37*
G36*
X604154Y73600D02*
X604375Y73416D01*
X604484Y73342D01*
X604592Y73278D01*
X604698Y73227D01*
X604804Y73186D01*
X604908Y73158D01*
X605011Y73140D01*
X605113Y73135D01*
Y72535D01*
X605011Y72529D01*
X604908Y72512D01*
X604804Y72483D01*
X604698Y72443D01*
X604592Y72391D01*
X604484Y72328D01*
X604375Y72253D01*
X604265Y72167D01*
X604154Y72069D01*
X604042Y71960D01*
Y73710D01*
X604154Y73600D01*
D02*
G37*
G36*
X681046Y76903D02*
X680736Y76666D01*
X680652Y76555D01*
X679951Y75875D01*
X679285Y75309D01*
X679014Y75108D01*
X678770Y74949D01*
X678570Y74839D01*
X678421Y74776D01*
X678337Y74752D01*
X678323Y74751D01*
X663583D01*
X663075Y74650D01*
X662645Y74362D01*
X660081Y71798D01*
X614561D01*
X614553Y71801D01*
X614522Y71816D01*
X614481Y71840D01*
X614440Y71868D01*
X614286Y71996D01*
X614221Y72095D01*
X614020Y72229D01*
X613971Y72726D01*
X618621Y77377D01*
X680885D01*
X681046Y76903D01*
D02*
G37*
G36*
X681446Y70945D02*
X681030Y71359D01*
X679920Y72340D01*
X679596Y72580D01*
X679295Y72776D01*
X679017Y72929D01*
X678761Y73038D01*
X678529Y73103D01*
X678320Y73125D01*
Y73725D01*
X678529Y73747D01*
X678761Y73812D01*
X679017Y73921D01*
X679295Y74074D01*
X679596Y74270D01*
X679920Y74510D01*
X680637Y75121D01*
X681446Y75906D01*
Y70945D01*
D02*
G37*
G36*
X678337Y72098D02*
X678421Y72074D01*
X678570Y72011D01*
X678770Y71901D01*
X679014Y71742D01*
X679278Y71547D01*
X680115Y70807D01*
X679925Y70307D01*
X665270D01*
X665270Y70307D01*
X664763Y70206D01*
X664333Y69919D01*
X663456Y69042D01*
X661729D01*
X661575Y69513D01*
X661574Y69542D01*
X664132Y72100D01*
X678323D01*
X678337Y72098D01*
D02*
G37*
G36*
X613603Y71238D02*
X613824Y71054D01*
X613933Y70979D01*
X614041Y70916D01*
X614147Y70864D01*
X614253Y70824D01*
X614357Y70795D01*
X614460Y70778D01*
X614562Y70772D01*
Y70172D01*
X614460Y70167D01*
X614357Y70149D01*
X614253Y70121D01*
X614147Y70080D01*
X614041Y70029D01*
X613933Y69965D01*
X613824Y69891D01*
X613714Y69804D01*
X613603Y69707D01*
X613491Y69597D01*
Y71347D01*
X613603Y71238D01*
D02*
G37*
G36*
X693941Y69882D02*
X693354Y69881D01*
X691875Y69790D01*
X691476Y69730D01*
X691125Y69656D01*
X690820Y69567D01*
X690563Y69464D01*
X690352Y69346D01*
X690189Y69213D01*
X689764Y69638D01*
X689897Y69801D01*
X690015Y70011D01*
X690118Y70269D01*
X690207Y70574D01*
X690281Y70925D01*
X690341Y71324D01*
X690416Y72263D01*
X690433Y73390D01*
X693941Y69882D01*
D02*
G37*
G36*
X605968Y68754D02*
X605913Y68667D01*
X605875Y68581D01*
X605853Y68494D01*
X605847Y68407D01*
X605859Y68321D01*
X605886Y68235D01*
X605931Y68149D01*
X605991Y68063D01*
X606069Y67978D01*
X605504Y67694D01*
X605372Y67825D01*
X604499Y68591D01*
X604413Y68652D01*
X606039Y68841D01*
X605968Y68754D01*
D02*
G37*
G36*
X681376Y67156D02*
X680736Y66666D01*
X680652Y66555D01*
X679951Y65875D01*
X679285Y65309D01*
X679014Y65108D01*
X678770Y64949D01*
X678570Y64839D01*
X678421Y64776D01*
X678337Y64752D01*
X678323Y64751D01*
X667833D01*
X666292Y66292D01*
X665862Y66579D01*
X665517Y66647D01*
X665346Y67043D01*
X665343Y67180D01*
X665819Y67656D01*
X681206D01*
X681376Y67156D01*
D02*
G37*
G36*
X615966Y66120D02*
X616186Y65936D01*
X616295Y65861D01*
X616403Y65798D01*
X616509Y65746D01*
X616615Y65706D01*
X616719Y65677D01*
X616822Y65660D01*
X616924Y65654D01*
Y65054D01*
X616822Y65049D01*
X616719Y65031D01*
X616615Y65003D01*
X616509Y64962D01*
X616403Y64911D01*
X616295Y64847D01*
X616186Y64773D01*
X616077Y64686D01*
X615966Y64589D01*
X615853Y64479D01*
Y66229D01*
X615966Y66120D01*
D02*
G37*
G36*
X607160Y64328D02*
X607309Y63894D01*
X607362Y63772D01*
X607471Y63561D01*
X607528Y63473D01*
X607586Y63395D01*
X607646Y63329D01*
X607343Y62783D01*
X607262Y62855D01*
X607175Y62916D01*
X607081Y62964D01*
X606981Y63001D01*
X606875Y63026D01*
X606763Y63039D01*
X606644Y63040D01*
X606519Y63029D01*
X606389Y63007D01*
X606251Y62972D01*
X607113Y64495D01*
X607160Y64328D01*
D02*
G37*
G36*
X681446Y60945D02*
X681030Y61359D01*
X679920Y62340D01*
X679596Y62580D01*
X679295Y62776D01*
X679017Y62929D01*
X678761Y63038D01*
X678529Y63103D01*
X678320Y63125D01*
Y63725D01*
X678529Y63747D01*
X678761Y63812D01*
X679017Y63921D01*
X679295Y64074D01*
X679596Y64270D01*
X679920Y64510D01*
X680637Y65121D01*
X681446Y65905D01*
Y60945D01*
D02*
G37*
G36*
X491102Y61863D02*
X491341Y61689D01*
X491457Y61618D01*
X491569Y61558D01*
X491679Y61509D01*
X491787Y61471D01*
X491891Y61444D01*
X491993Y61427D01*
X492092Y61422D01*
X492141Y60822D01*
X492037Y60816D01*
X491933Y60798D01*
X491829Y60768D01*
X491726Y60726D01*
X491624Y60672D01*
X491521Y60606D01*
X491419Y60528D01*
X491318Y60438D01*
X491217Y60336D01*
X491116Y60222D01*
X490978Y61966D01*
X491102Y61863D01*
D02*
G37*
G36*
X609666Y61396D02*
X609887Y61212D01*
X609996Y61137D01*
X610104Y61074D01*
X610210Y61022D01*
X610316Y60982D01*
X610420Y60953D01*
X610523Y60936D01*
X610625Y60930D01*
Y60330D01*
X610523Y60324D01*
X610420Y60307D01*
X610316Y60278D01*
X610210Y60238D01*
X610104Y60186D01*
X609996Y60123D01*
X609887Y60048D01*
X609777Y59962D01*
X609666Y59864D01*
X609554Y59755D01*
Y61505D01*
X609666Y61396D01*
D02*
G37*
G36*
X666346Y62488D02*
X666776Y62201D01*
X667283Y62100D01*
X678323D01*
X678337Y62098D01*
X678421Y62074D01*
X678570Y62011D01*
X678770Y61901D01*
X679014Y61742D01*
X679278Y61547D01*
X680332Y60615D01*
X680645Y60304D01*
X680736Y60185D01*
X680890Y60067D01*
X680729Y59593D01*
X668266D01*
X664590Y63269D01*
X664765Y63801D01*
X664998Y63836D01*
X666346Y62488D01*
D02*
G37*
G36*
X693941Y59882D02*
X693354Y59881D01*
X691875Y59790D01*
X691476Y59730D01*
X691125Y59656D01*
X690820Y59567D01*
X690563Y59464D01*
X690352Y59346D01*
X690189Y59213D01*
X689764Y59637D01*
X689897Y59801D01*
X690015Y60011D01*
X690118Y60269D01*
X690207Y60574D01*
X690281Y60925D01*
X690341Y61324D01*
X690416Y62263D01*
X690433Y63390D01*
X693941Y59882D01*
D02*
G37*
G36*
X597684Y52691D02*
X597749Y52459D01*
X597858Y52204D01*
X598011Y51926D01*
X598207Y51625D01*
X598447Y51301D01*
X599058Y50583D01*
X599843Y49775D01*
X594882D01*
X595296Y50191D01*
X596277Y51301D01*
X596517Y51625D01*
X596713Y51926D01*
X596866Y52204D01*
X596975Y52459D01*
X597040Y52691D01*
X597062Y52901D01*
X597662D01*
X597684Y52691D01*
D02*
G37*
G36*
X693941Y49882D02*
X693354Y49881D01*
X691875Y49790D01*
X691476Y49730D01*
X691125Y49656D01*
X690820Y49567D01*
X690563Y49464D01*
X690352Y49346D01*
X690189Y49213D01*
X689764Y49637D01*
X689897Y49801D01*
X690015Y50011D01*
X690118Y50269D01*
X690207Y50574D01*
X690281Y50925D01*
X690341Y51324D01*
X690416Y52263D01*
X690433Y53390D01*
X693941Y49882D01*
D02*
G37*
%LPC*%
G36*
X616761Y100287D02*
X615067D01*
Y98593D01*
X615445Y98668D01*
X616189Y99165D01*
X616686Y99910D01*
X616761Y100287D01*
D02*
G37*
G36*
X600106Y96683D02*
Y94988D01*
X601801D01*
X601726Y95366D01*
X601229Y96110D01*
X600484Y96608D01*
X600106Y96683D01*
D02*
G37*
G36*
X659555Y88415D02*
Y86721D01*
X661250D01*
X661175Y87098D01*
X660677Y87843D01*
X659933Y88340D01*
X659555Y88415D01*
D02*
G37*
G36*
X658555D02*
X658177Y88340D01*
X657433Y87843D01*
X656936Y87098D01*
X656860Y86721D01*
X658555D01*
Y88415D01*
D02*
G37*
%LPD*%
G36*
X28229Y142803D02*
X28321Y141324D01*
X28380Y140925D01*
X28454Y140574D01*
X28543Y140269D01*
X28646Y140011D01*
X28764Y139801D01*
X28897Y139637D01*
X28473Y139213D01*
X28309Y139346D01*
X28099Y139464D01*
X27841Y139567D01*
X27537Y139656D01*
X27185Y139730D01*
X26786Y139790D01*
X25848Y139865D01*
X24721Y139882D01*
X28228Y143390D01*
X28229Y142803D01*
D02*
G37*
G36*
X541064Y139250D02*
X541285Y139066D01*
X541394Y138991D01*
X541501Y138928D01*
X541608Y138876D01*
X541713Y138836D01*
X541817Y138807D01*
X541921Y138790D01*
X542023Y138784D01*
Y138184D01*
X541921Y138179D01*
X541817Y138161D01*
X541713Y138133D01*
X541608Y138092D01*
X541501Y138040D01*
X541394Y137977D01*
X541285Y137902D01*
X541175Y137816D01*
X541064Y137718D01*
X540952Y137609D01*
Y139359D01*
X541064Y139250D01*
D02*
G37*
G36*
X583900Y134052D02*
X583985Y133991D01*
X584079Y133938D01*
X584182Y133892D01*
X584294Y133853D01*
X584415Y133822D01*
X584545Y133798D01*
X584683Y133781D01*
X584831Y133772D01*
X584987Y133770D01*
X583750Y132532D01*
X583748Y132689D01*
X583722Y132975D01*
X583698Y133105D01*
X583666Y133226D01*
X583628Y133338D01*
X583582Y133441D01*
X583528Y133535D01*
X583468Y133620D01*
X583399Y133696D01*
X583824Y134120D01*
X583900Y134052D01*
D02*
G37*
G36*
X28229Y132803D02*
X28321Y131324D01*
X28380Y130925D01*
X28454Y130574D01*
X28543Y130269D01*
X28646Y130011D01*
X28764Y129801D01*
X28897Y129638D01*
X28473Y129213D01*
X28309Y129346D01*
X28099Y129464D01*
X27841Y129567D01*
X27537Y129656D01*
X27185Y129730D01*
X26786Y129790D01*
X25848Y129865D01*
X24721Y129882D01*
X28228Y133390D01*
X28229Y132803D01*
D02*
G37*
G36*
X639658Y127865D02*
X639546Y127974D01*
X639325Y128158D01*
X639217Y128233D01*
X639109Y128296D01*
X639003Y128348D01*
X638897Y128388D01*
X638793Y128417D01*
X638690Y128434D01*
X638588Y128440D01*
Y129040D01*
X638690Y129046D01*
X638793Y129063D01*
X638897Y129092D01*
X639003Y129132D01*
X639109Y129184D01*
X639217Y129247D01*
X639325Y129322D01*
X639435Y129408D01*
X639546Y129506D01*
X639658Y129615D01*
Y127865D01*
D02*
G37*
G36*
X576766Y127995D02*
X576582Y127774D01*
X576507Y127665D01*
X576444Y127558D01*
X576392Y127451D01*
X576352Y127346D01*
X576323Y127242D01*
X576306Y127138D01*
X576300Y127036D01*
X575700D01*
X575694Y127138D01*
X575677Y127242D01*
X575648Y127346D01*
X575608Y127451D01*
X575556Y127558D01*
X575493Y127665D01*
X575418Y127774D01*
X575332Y127884D01*
X575234Y127995D01*
X575125Y128107D01*
X576875D01*
X576766Y127995D01*
D02*
G37*
G36*
X617218Y127697D02*
X617325Y127608D01*
X617375Y127574D01*
X617421Y127548D01*
X617465Y127529D01*
X617506Y127517D01*
X617545Y127512D01*
X617580Y127515D01*
X617613Y127525D01*
X616963Y126875D01*
X616973Y126908D01*
X616976Y126944D01*
X616972Y126982D01*
X616960Y127023D01*
X616941Y127067D01*
X616914Y127114D01*
X616881Y127163D01*
X616840Y127215D01*
X616791Y127270D01*
X616736Y127328D01*
X617160Y127752D01*
X617218Y127697D01*
D02*
G37*
G36*
X67934Y127537D02*
X68155Y127353D01*
X68264Y127279D01*
X68371Y127215D01*
X68478Y127164D01*
X68583Y127123D01*
X68687Y127095D01*
X68791Y127077D01*
X68893Y127072D01*
Y126472D01*
X68791Y126466D01*
X68687Y126449D01*
X68583Y126420D01*
X68478Y126380D01*
X68371Y126328D01*
X68264Y126265D01*
X68155Y126190D01*
X68045Y126104D01*
X67934Y126006D01*
X67822Y125897D01*
Y127647D01*
X67934Y127537D01*
D02*
G37*
G36*
X614254Y125942D02*
X614339Y125881D01*
X614433Y125828D01*
X614536Y125782D01*
X614648Y125743D01*
X614769Y125712D01*
X614899Y125688D01*
X615038Y125671D01*
X615185Y125661D01*
X615342Y125659D01*
X614104Y124422D01*
X614102Y124578D01*
X614076Y124865D01*
X614052Y124995D01*
X614021Y125116D01*
X613982Y125227D01*
X613936Y125330D01*
X613883Y125424D01*
X613822Y125510D01*
X613754Y125586D01*
X614178Y126010D01*
X614254Y125942D01*
D02*
G37*
G36*
X597631Y122058D02*
X597519Y122167D01*
X597298Y122351D01*
X597189Y122426D01*
X597081Y122489D01*
X596975Y122541D01*
X596870Y122581D01*
X596765Y122610D01*
X596662Y122627D01*
X596560Y122633D01*
Y123233D01*
X596662Y123239D01*
X596765Y123256D01*
X596870Y123285D01*
X596975Y123325D01*
X597081Y123377D01*
X597189Y123440D01*
X597298Y123515D01*
X597408Y123601D01*
X597519Y123699D01*
X597631Y123808D01*
Y122058D01*
D02*
G37*
G36*
X616430Y120779D02*
X616318Y120888D01*
X616097Y121072D01*
X615988Y121147D01*
X615881Y121210D01*
X615774Y121262D01*
X615669Y121302D01*
X615564Y121330D01*
X615461Y121348D01*
X615359Y121353D01*
Y121953D01*
X615461Y121959D01*
X615564Y121976D01*
X615669Y122005D01*
X615774Y122046D01*
X615881Y122097D01*
X615988Y122160D01*
X616097Y122235D01*
X616207Y122321D01*
X616318Y122419D01*
X616430Y122529D01*
Y120779D01*
D02*
G37*
G36*
X28012Y122140D02*
X27960Y121853D01*
X27933Y121580D01*
X27931Y121323D01*
X27953Y121080D01*
X28001Y120853D01*
X28073Y120641D01*
X28171Y120443D01*
X28293Y120261D01*
X28440Y120094D01*
X28016Y119670D01*
X27849Y119817D01*
X27667Y119939D01*
X27470Y120037D01*
X27257Y120109D01*
X27030Y120157D01*
X26787Y120179D01*
X26530Y120177D01*
X26258Y120150D01*
X25970Y120098D01*
X25668Y120021D01*
X28089Y122442D01*
X28012Y122140D01*
D02*
G37*
G36*
X582670Y117629D02*
X582558Y117738D01*
X582337Y117922D01*
X582228Y117997D01*
X582121Y118060D01*
X582014Y118112D01*
X581909Y118152D01*
X581805Y118181D01*
X581702Y118198D01*
X581600Y118204D01*
Y118804D01*
X581702Y118810D01*
X581805Y118827D01*
X581909Y118856D01*
X582014Y118896D01*
X582121Y118948D01*
X582228Y119011D01*
X582337Y119086D01*
X582447Y119172D01*
X582558Y119270D01*
X582670Y119379D01*
Y117629D01*
D02*
G37*
G36*
X594377Y117352D02*
X594221Y117350D01*
X593934Y117324D01*
X593805Y117300D01*
X593684Y117269D01*
X593572Y117230D01*
X593469Y117184D01*
X593375Y117131D01*
X593290Y117070D01*
X593214Y117002D01*
X592789Y117426D01*
X592857Y117502D01*
X592918Y117587D01*
X592971Y117682D01*
X593017Y117784D01*
X593056Y117896D01*
X593088Y118017D01*
X593112Y118147D01*
X593128Y118286D01*
X593138Y118433D01*
X593140Y118590D01*
X594377Y117352D01*
D02*
G37*
G36*
X593427Y123353D02*
X582227Y112152D01*
X579435D01*
X579127Y112574D01*
X579167Y112827D01*
X579640Y113116D01*
X580413Y112962D01*
X581291Y113136D01*
X582035Y113634D01*
X582533Y114378D01*
X582708Y115256D01*
X582579Y115900D01*
X582950Y116322D01*
X582965Y116329D01*
X583563Y116210D01*
X584441Y116384D01*
X585185Y116882D01*
X585682Y117626D01*
X585857Y118504D01*
X585682Y119382D01*
X585185Y120126D01*
X584441Y120623D01*
X584241Y120663D01*
X584096Y121142D01*
X586769Y123815D01*
X593236D01*
X593427Y123353D01*
D02*
G37*
G36*
X579313Y116788D02*
X579398Y116728D01*
X579493Y116674D01*
X579596Y116628D01*
X579707Y116589D01*
X579828Y116558D01*
X579958Y116534D01*
X580097Y116517D01*
X580244Y116508D01*
X580401Y116506D01*
X579164Y115268D01*
X579161Y115425D01*
X579135Y115711D01*
X579111Y115841D01*
X579080Y115962D01*
X579041Y116074D01*
X578995Y116177D01*
X578942Y116271D01*
X578881Y116356D01*
X578813Y116432D01*
X579237Y116856D01*
X579313Y116788D01*
D02*
G37*
G36*
X575754Y114935D02*
X575841Y114874D01*
X575935Y114823D01*
X576037Y114781D01*
X576148Y114748D01*
X576266Y114725D01*
X576392Y114711D01*
X576525Y114706D01*
X576667Y114711D01*
X576817Y114725D01*
X575725Y113357D01*
X575705Y113519D01*
X575651Y113813D01*
X575616Y113946D01*
X575576Y114068D01*
X575531Y114181D01*
X575481Y114283D01*
X575426Y114376D01*
X575365Y114459D01*
X575300Y114532D01*
X575675Y115005D01*
X575754Y114935D01*
D02*
G37*
G36*
X388888Y72334D02*
X388906Y72231D01*
X388934Y72127D01*
X388975Y72021D01*
X389026Y71915D01*
X389090Y71807D01*
X389164Y71698D01*
X389251Y71588D01*
X389348Y71477D01*
X389458Y71365D01*
X387708D01*
X387817Y71477D01*
X388001Y71698D01*
X388076Y71807D01*
X388139Y71915D01*
X388191Y72021D01*
X388231Y72127D01*
X388260Y72231D01*
X388277Y72334D01*
X388283Y72436D01*
X388883D01*
X388888Y72334D01*
D02*
G37*
G36*
X330227Y71940D02*
X330244Y71837D01*
X330273Y71733D01*
X330313Y71627D01*
X330365Y71521D01*
X330428Y71413D01*
X330503Y71305D01*
X330589Y71195D01*
X330687Y71084D01*
X330796Y70971D01*
X329046D01*
X329155Y71084D01*
X329340Y71305D01*
X329414Y71413D01*
X329478Y71521D01*
X329529Y71627D01*
X329570Y71733D01*
X329598Y71837D01*
X329615Y71940D01*
X329621Y72042D01*
X330221D01*
X330227Y71940D01*
D02*
G37*
G36*
X270385Y71547D02*
X270402Y71443D01*
X270430Y71339D01*
X270471Y71234D01*
X270522Y71127D01*
X270586Y71020D01*
X270660Y70911D01*
X270747Y70801D01*
X270845Y70690D01*
X270954Y70578D01*
X269204D01*
X269313Y70690D01*
X269497Y70911D01*
X269572Y71020D01*
X269635Y71127D01*
X269687Y71234D01*
X269727Y71339D01*
X269756Y71443D01*
X269773Y71547D01*
X269779Y71649D01*
X270379D01*
X270385Y71547D01*
D02*
G37*
G36*
X27631Y115491D02*
X28741Y114510D01*
X29066Y114270D01*
X29367Y114074D01*
X29645Y113921D01*
X29900Y113812D01*
X30132Y113747D01*
X30342Y113725D01*
Y113125D01*
X30132Y113103D01*
X29900Y113038D01*
X29645Y112929D01*
X29367Y112776D01*
X29066Y112580D01*
X28741Y112340D01*
X28024Y111730D01*
X27215Y110945D01*
Y115905D01*
X27631Y115491D01*
D02*
G37*
G36*
X66036Y105424D02*
X65924Y105534D01*
X65703Y105718D01*
X65595Y105792D01*
X65487Y105856D01*
X65380Y105907D01*
X65275Y105947D01*
X65171Y105976D01*
X65068Y105993D01*
X64966Y105999D01*
Y106599D01*
X65068Y106605D01*
X65171Y106622D01*
X65275Y106651D01*
X65380Y106691D01*
X65487Y106743D01*
X65595Y106806D01*
X65703Y106881D01*
X65813Y106967D01*
X65924Y107065D01*
X66036Y107174D01*
Y105424D01*
D02*
G37*
G36*
X580785Y94172D02*
X580601Y93951D01*
X580527Y93843D01*
X580463Y93735D01*
X580412Y93629D01*
X580371Y93523D01*
X580343Y93419D01*
X580325Y93316D01*
X580320Y93214D01*
X579720D01*
X579714Y93316D01*
X579697Y93419D01*
X579668Y93523D01*
X579628Y93629D01*
X579576Y93735D01*
X579513Y93843D01*
X579438Y93951D01*
X579352Y94061D01*
X579254Y94172D01*
X579145Y94284D01*
X580895D01*
X580785Y94172D01*
D02*
G37*
G36*
X580325Y82865D02*
X580343Y82762D01*
X580371Y82658D01*
X580412Y82553D01*
X580463Y82446D01*
X580527Y82339D01*
X580601Y82230D01*
X580688Y82120D01*
X580785Y82009D01*
X580895Y81897D01*
X579145D01*
X579254Y82009D01*
X579438Y82230D01*
X579513Y82339D01*
X579576Y82446D01*
X579628Y82553D01*
X579668Y82658D01*
X579697Y82762D01*
X579714Y82865D01*
X579720Y82967D01*
X580320D01*
X580325Y82865D01*
D02*
G37*
G36*
X522419Y108050D02*
X522235Y107829D01*
X522160Y107721D01*
X522097Y107613D01*
X522046Y107506D01*
X522005Y107401D01*
X521977Y107297D01*
X521959Y107194D01*
X521953Y107092D01*
X521353D01*
X521348Y107194D01*
X521330Y107297D01*
X521302Y107401D01*
X521262Y107506D01*
X521210Y107613D01*
X521146Y107721D01*
X521072Y107829D01*
X520986Y107939D01*
X520888Y108050D01*
X520779Y108162D01*
X522529D01*
X522419Y108050D01*
D02*
G37*
G36*
X521959Y75484D02*
X521977Y75380D01*
X522005Y75276D01*
X522046Y75171D01*
X522097Y75064D01*
X522160Y74957D01*
X522235Y74848D01*
X522322Y74738D01*
X522419Y74627D01*
X522529Y74515D01*
X520779D01*
X520888Y74627D01*
X521072Y74848D01*
X521146Y74957D01*
X521210Y75064D01*
X521262Y75171D01*
X521302Y75276D01*
X521330Y75380D01*
X521348Y75484D01*
X521353Y75586D01*
X521953D01*
X521959Y75484D01*
D02*
G37*
D12*
X425000Y142000D02*
Y186221D01*
X431465Y113465D02*
X570885D01*
X428937Y110937D02*
X431465Y113465D01*
X71697Y124803D02*
X575803D01*
X69728Y126772D02*
X71697Y124803D01*
X66929Y126772D02*
X69728D01*
X44882Y123228D02*
X580915D01*
X24685Y143425D02*
X44882Y123228D01*
X580915D02*
X585226Y127540D01*
X540059Y138484D02*
X579035D01*
X585000Y132520D01*
X575803Y124803D02*
X580792D01*
X576000Y125000D02*
Y129000D01*
X575803Y124803D02*
X576000Y125000D01*
X584729Y128740D02*
X640551D01*
X580792Y124803D02*
X584729Y128740D01*
X39134Y113425D02*
X46260Y106299D01*
X66929D01*
X24685Y113425D02*
X39134D01*
X597362Y47244D02*
Y60709D01*
X329921Y70079D02*
Y113761D01*
X270079Y69685D02*
Y110630D01*
X388583Y70472D02*
Y113386D01*
X391301Y116104D01*
X574152D02*
X576968Y113287D01*
X36457Y121653D02*
X581037D01*
X24685Y133425D02*
X36457Y121653D01*
X581037D02*
X585723Y126340D01*
X574902Y61122D02*
X601968Y88189D01*
Y90551D01*
X593701Y76968D02*
X604331Y87598D01*
X593701Y64370D02*
Y76968D01*
Y64370D02*
X597362Y60709D01*
X521654Y73622D02*
Y109055D01*
X489862Y61122D02*
X574902D01*
X618072Y78702D02*
X688545D01*
X612205Y72835D02*
X618072Y78702D01*
X688545D02*
X693268Y83425D01*
X603150Y72835D02*
X612205D01*
X660630Y70472D02*
X663583Y73425D01*
X612598Y70472D02*
X660630D01*
X663583Y73425D02*
X683976D01*
X664005Y67716D02*
X665270Y68982D01*
X605905Y67716D02*
X664005D01*
X665270Y68982D02*
X689533D01*
X665354Y65354D02*
X667283Y63425D01*
X614961Y65354D02*
X665354D01*
X667283Y63425D02*
X683976D01*
X663204Y62780D02*
X667717Y58268D01*
X607771Y62780D02*
X663204D01*
X662205Y60630D02*
X675197Y47638D01*
X608661Y60630D02*
X662205D01*
X575000Y109350D02*
X585138D01*
X570885Y113465D02*
X575000Y109350D01*
X585138D02*
X594390Y118602D01*
X575689Y110827D02*
X582776D01*
X571850Y114665D02*
X575689Y110827D01*
X582776D02*
X594882Y122933D01*
X576968Y113287D02*
Y113484D01*
X391301Y116104D02*
X574152D01*
X333465Y117304D02*
X578365D01*
X569488Y118504D02*
X583563D01*
X28228Y119882D02*
X580962D01*
X578365Y117304D02*
X580413Y115256D01*
X277953Y118504D02*
X569390D01*
X580962Y119882D02*
X586221Y125140D01*
X395866Y114665D02*
X571850D01*
X394980Y113779D02*
X395866Y114665D01*
X24685Y123425D02*
X28228Y119882D01*
X594390Y118602D02*
X594390D01*
X588681Y81988D02*
Y91535D01*
X592895Y82780D02*
X595965Y85851D01*
X621949Y108268D02*
X688819D01*
X618799Y105118D02*
X621949Y108268D01*
X620079Y109843D02*
X667323D01*
X607776Y97539D02*
X620079Y109843D01*
X617421Y111417D02*
X663386D01*
X608366Y102362D02*
X617421Y111417D01*
X615551Y112992D02*
X654724D01*
X605512Y102953D02*
X615551Y112992D01*
X603543Y102953D02*
X605512D01*
X595965Y110138D02*
X596063Y110236D01*
X609055D01*
X595965Y85851D02*
Y110138D01*
X580020Y81004D02*
Y95177D01*
X588681Y91535D02*
X588779Y91634D01*
X594882Y122933D02*
X598524D01*
X586221Y125140D02*
X609112D01*
X585723Y126340D02*
X613424D01*
X585226Y127540D02*
X616948D01*
X609112Y125140D02*
X612598Y121653D01*
X613424Y126340D02*
X615354Y124409D01*
X616948Y127540D02*
X618110Y126378D01*
X612598Y121653D02*
X617323D01*
X329921Y113761D02*
X333465Y117304D01*
X270079Y110630D02*
X277953Y118504D01*
X602775Y82302D02*
X661436D01*
X597244Y76772D02*
X602775Y82302D01*
X605118Y81102D02*
X671260D01*
X600787Y76772D02*
X605118Y81102D01*
X675197Y47638D02*
X688189D01*
X606378Y64173D02*
X607771Y62780D01*
X605905Y64173D02*
X606378D01*
X611024Y75197D02*
X615729Y79902D01*
X680453D01*
X683976Y83425D01*
X671260Y81102D02*
X678740Y88583D01*
X661436Y82302D02*
X677559Y98425D01*
X693268Y83425D02*
X693976D01*
X692126D02*
X693268D01*
X605117Y68505D02*
X605905Y67716D01*
X605117Y68505D02*
Y69685D01*
X688189Y47638D02*
X693976Y53425D01*
X667717Y58268D02*
X688819D01*
X693976Y63425D01*
X689533Y68982D02*
X693976Y73425D01*
X678740Y88583D02*
X687795D01*
X692638Y93425D01*
X693976D01*
X677559Y98425D02*
X688976D01*
X693976Y103425D01*
X654724Y112992D02*
X680315Y138583D01*
X688583D01*
X693425Y143425D01*
X693976D01*
X663386Y111417D02*
X680315Y128347D01*
X688898D01*
X693976Y133425D01*
X689055Y118504D02*
X693976Y123425D01*
X675984Y118504D02*
X689055D01*
X667323Y109843D02*
X675984Y118504D01*
X688819Y108268D02*
X693976Y113425D01*
D13*
X147968Y151969D02*
X148000Y152000D01*
X5906Y151969D02*
X147968D01*
X161500Y127000D02*
Y130000D01*
X171181D01*
X145000D02*
X161500D01*
X171181D02*
X171260Y129921D01*
X38386Y147638D02*
X205512D01*
X207874Y145276D01*
X38386Y93504D02*
X122047D01*
X212598Y102362D02*
X215551Y105315D01*
X196850Y102362D02*
X212598D01*
X171260Y127165D02*
Y129921D01*
X210630Y165748D02*
X219291D01*
X171260Y129921D02*
X199606D01*
X171260Y127165D02*
X171260Y127165D01*
D65*
X462000Y81000D02*
D03*
X452000D02*
D03*
X457000Y187000D02*
D03*
X24685Y143425D02*
D03*
Y133425D02*
D03*
Y123425D02*
D03*
Y113425D02*
D03*
Y103425D02*
D03*
Y93425D02*
D03*
Y83425D02*
D03*
Y73425D02*
D03*
Y63425D02*
D03*
Y53425D02*
D03*
X14685Y143425D02*
D03*
Y133425D02*
D03*
Y123425D02*
D03*
Y113425D02*
D03*
Y103425D02*
D03*
Y93425D02*
D03*
Y83425D02*
D03*
Y73425D02*
D03*
Y63425D02*
D03*
Y53425D02*
D03*
X348819Y135039D02*
D03*
X226378Y50197D02*
D03*
X42323Y169291D02*
D03*
X200787Y157480D02*
D03*
X53228Y114567D02*
D03*
X43228Y84567D02*
D03*
X53228Y64567D02*
D03*
X607362Y47244D02*
D03*
X597362D02*
D03*
X587362D02*
D03*
X683976Y53425D02*
D03*
Y63425D02*
D03*
Y73425D02*
D03*
Y83425D02*
D03*
Y93425D02*
D03*
Y103425D02*
D03*
Y113425D02*
D03*
Y123425D02*
D03*
Y133425D02*
D03*
Y143425D02*
D03*
X693976Y53425D02*
D03*
Y63425D02*
D03*
Y73425D02*
D03*
Y83425D02*
D03*
Y93425D02*
D03*
Y103425D02*
D03*
Y113425D02*
D03*
Y123425D02*
D03*
Y133425D02*
D03*
Y143425D02*
D03*
X383858Y174409D02*
D03*
Y144488D02*
D03*
D66*
X159606Y175197D02*
D03*
X139606D02*
D03*
X444331Y41339D02*
D03*
X424331D02*
D03*
X404331D02*
D03*
X384331D02*
D03*
X364331D02*
D03*
X344331D02*
D03*
X324331D02*
D03*
X304331D02*
D03*
X284331D02*
D03*
X264331D02*
D03*
D67*
X617362Y47244D02*
D03*
D68*
X425000Y142000D02*
D03*
Y186221D02*
D03*
X428937Y110937D02*
D03*
X148000Y152000D02*
D03*
X161500Y127000D02*
D03*
X145000Y130000D02*
D03*
X585000Y132520D02*
D03*
X576000Y129000D02*
D03*
X615354Y124409D02*
D03*
X66929Y126772D02*
D03*
X640551Y128740D02*
D03*
X66929Y106299D02*
D03*
X38386Y147638D02*
D03*
X122047Y93504D02*
D03*
X38386D02*
D03*
X490158Y61024D02*
D03*
X215551Y105315D02*
D03*
X196850Y102362D02*
D03*
X651575Y118110D02*
D03*
X659055Y86221D02*
D03*
X377559Y80709D02*
D03*
X614567Y100787D02*
D03*
X599606Y94488D02*
D03*
X601968Y90551D02*
D03*
X584252Y81102D02*
D03*
X521654Y73622D02*
D03*
Y109055D02*
D03*
X576968Y113484D02*
D03*
X580413Y115256D02*
D03*
X583563Y118504D02*
D03*
X394980Y113779D02*
D03*
X594390Y118602D02*
D03*
X540059Y138484D02*
D03*
X588681Y81988D02*
D03*
X604331Y87598D02*
D03*
X592895Y82780D02*
D03*
X618799Y105118D02*
D03*
X607776Y97539D02*
D03*
X608366Y102362D02*
D03*
X603543Y102953D02*
D03*
X580020Y95177D02*
D03*
Y81004D02*
D03*
X588779Y91634D02*
D03*
X598524Y122933D02*
D03*
X617323Y121653D02*
D03*
X618110Y126378D02*
D03*
X388583Y70472D02*
D03*
X329921Y70079D02*
D03*
X270079Y69685D02*
D03*
X605905Y64173D02*
D03*
X608661Y60630D02*
D03*
X611024Y75197D02*
D03*
X614961Y65354D02*
D03*
X612598Y70472D02*
D03*
X605117Y69685D02*
D03*
X603150Y72835D02*
D03*
X600787Y76772D02*
D03*
X597244D02*
D03*
X219291Y165748D02*
D03*
X210630D02*
D03*
X199606Y129921D02*
D03*
X171260Y127165D02*
D03*
X609055Y110236D02*
D03*
X5906Y151969D02*
D03*
X207874Y145276D02*
D03*
M02*
