G04*
G04 #@! TF.GenerationSoftware,Altium Limited,Altium Designer,18.0.12 (696)*
G04*
G04 Layer_Color=8421504*
%FSLAX25Y25*%
%MOIN*%
G70*
G01*
G75*
%ADD14R,0.07677X0.07874*%
%ADD15R,0.07874X0.07677*%
%ADD16R,0.03150X0.03543*%
%ADD17R,0.04921X0.01102*%
%ADD18R,0.01102X0.04921*%
%ADD19R,0.19685X0.21260*%
%ADD20R,0.07874X0.09843*%
%ADD21R,0.02165X0.03937*%
%ADD22R,0.09055X0.05906*%
%ADD23R,0.02362X0.06299*%
%ADD24R,0.09449X0.06299*%
%ADD25R,0.02362X0.05984*%
%ADD26R,0.17717X0.21260*%
%ADD27R,0.03740X0.04528*%
%ADD28R,0.02559X0.05315*%
%ADD29R,0.05512X0.17717*%
%ADD30R,0.42520X0.45276*%
%ADD31R,0.05315X0.14173*%
%ADD32R,0.03937X0.05512*%
%ADD33R,0.05906X0.04724*%
%ADD34R,0.04528X0.03740*%
%ADD35R,0.05315X0.02559*%
%ADD36R,0.07874X0.05512*%
D14*
X257480Y164311D02*
D03*
D15*
X202618Y175197D02*
D03*
D16*
X161400Y134357D02*
D03*
Y141443D02*
D03*
X585000Y142457D02*
D03*
Y149543D02*
D03*
X576000Y142457D02*
D03*
Y149543D02*
D03*
X56102Y137205D02*
D03*
Y144291D02*
D03*
X43307Y144291D02*
D03*
Y137205D02*
D03*
X574803Y84252D02*
D03*
Y91339D02*
D03*
X584646Y91339D02*
D03*
Y84252D02*
D03*
X621260Y74409D02*
D03*
Y67323D02*
D03*
X645669Y113779D02*
D03*
Y106693D02*
D03*
X635827Y106693D02*
D03*
Y113779D02*
D03*
X622047Y122441D02*
D03*
Y129528D02*
D03*
X604331Y122441D02*
D03*
Y129528D02*
D03*
X593701Y142126D02*
D03*
Y149213D02*
D03*
X629921Y142126D02*
D03*
Y149213D02*
D03*
X481102Y35039D02*
D03*
Y27953D02*
D03*
X473228Y35039D02*
D03*
Y27953D02*
D03*
X465354Y50787D02*
D03*
Y43701D02*
D03*
X545276Y57480D02*
D03*
Y64567D02*
D03*
X535433Y57480D02*
D03*
Y64567D02*
D03*
X555118Y82283D02*
D03*
Y75197D02*
D03*
X545276Y82283D02*
D03*
Y75197D02*
D03*
X535433Y75197D02*
D03*
Y82284D02*
D03*
X257874Y110630D02*
D03*
Y117717D02*
D03*
X248031Y110630D02*
D03*
Y117717D02*
D03*
X238189D02*
D03*
Y110630D02*
D03*
X228346Y117717D02*
D03*
Y110630D02*
D03*
X228346Y134252D02*
D03*
Y141339D02*
D03*
Y157874D02*
D03*
Y164961D02*
D03*
X238189Y164961D02*
D03*
Y157874D02*
D03*
X248031Y164961D02*
D03*
Y157874D02*
D03*
X167323Y107677D02*
D03*
Y114764D02*
D03*
X202756Y114567D02*
D03*
Y121653D02*
D03*
X202756Y134646D02*
D03*
Y141732D02*
D03*
X171260Y134252D02*
D03*
Y141339D02*
D03*
X152000Y141543D02*
D03*
Y134457D02*
D03*
X403543Y80315D02*
D03*
Y73228D02*
D03*
X473228Y59449D02*
D03*
Y66535D02*
D03*
X393701Y107874D02*
D03*
Y100787D02*
D03*
X481102Y59449D02*
D03*
Y66535D02*
D03*
X285433Y73228D02*
D03*
Y80315D02*
D03*
X344488Y73228D02*
D03*
Y80315D02*
D03*
X393701Y80315D02*
D03*
Y73228D02*
D03*
X334646Y80315D02*
D03*
Y73228D02*
D03*
X275590Y80315D02*
D03*
Y73228D02*
D03*
X383858Y73228D02*
D03*
Y80315D02*
D03*
X324803Y73228D02*
D03*
Y80315D02*
D03*
X265748Y73228D02*
D03*
Y80315D02*
D03*
X545276Y149213D02*
D03*
Y142126D02*
D03*
X555118Y142126D02*
D03*
Y149213D02*
D03*
D17*
X627063Y87598D02*
D03*
Y89567D02*
D03*
Y91535D02*
D03*
Y93504D02*
D03*
Y95473D02*
D03*
Y97441D02*
D03*
Y99410D02*
D03*
Y101378D02*
D03*
Y103347D02*
D03*
Y105315D02*
D03*
Y107283D02*
D03*
Y109252D02*
D03*
X593409D02*
D03*
Y107283D02*
D03*
Y105315D02*
D03*
Y103347D02*
D03*
Y101378D02*
D03*
Y99410D02*
D03*
Y97441D02*
D03*
Y95472D02*
D03*
Y93504D02*
D03*
Y91535D02*
D03*
Y89567D02*
D03*
Y87598D02*
D03*
D18*
X599409Y81598D02*
D03*
X601378D02*
D03*
X603346D02*
D03*
X605315D02*
D03*
X607283D02*
D03*
X609252D02*
D03*
X611221D02*
D03*
X613189D02*
D03*
X615158D02*
D03*
X617126D02*
D03*
X619095D02*
D03*
X621063D02*
D03*
X599409Y115252D02*
D03*
X601378D02*
D03*
X603346D02*
D03*
X605315D02*
D03*
X607283D02*
D03*
X609252D02*
D03*
X611221D02*
D03*
X613189D02*
D03*
X615158D02*
D03*
X617126D02*
D03*
X619095D02*
D03*
X621063D02*
D03*
D19*
X74803Y57087D02*
D03*
X124016D02*
D03*
D20*
X143701Y65945D02*
D03*
Y81693D02*
D03*
D21*
X473425Y42126D02*
D03*
X477165D02*
D03*
X473425Y52362D02*
D03*
X477165D02*
D03*
X480905D02*
D03*
Y42126D02*
D03*
D22*
X557480Y39370D02*
D03*
X521260D02*
D03*
D23*
X552559Y131890D02*
D03*
X547559D02*
D03*
X542559D02*
D03*
X537559D02*
D03*
X532559D02*
D03*
X527559D02*
D03*
X522559D02*
D03*
X517559D02*
D03*
Y92520D02*
D03*
X522559D02*
D03*
X527559D02*
D03*
X532559D02*
D03*
X537559D02*
D03*
X542559D02*
D03*
X547559D02*
D03*
X552559D02*
D03*
D24*
X336221Y178740D02*
D03*
Y166929D02*
D03*
D25*
X257500Y126929D02*
D03*
X252500D02*
D03*
X247500D02*
D03*
X242500D02*
D03*
Y148661D02*
D03*
X247500D02*
D03*
X252500D02*
D03*
X257500D02*
D03*
X179508Y138819D02*
D03*
X184508D02*
D03*
X189508D02*
D03*
X194508D02*
D03*
Y117087D02*
D03*
X189508D02*
D03*
X184508D02*
D03*
X179508D02*
D03*
D26*
X318110Y153150D02*
D03*
X273622D02*
D03*
D27*
X257480Y158268D02*
D03*
D28*
Y173386D02*
D03*
D29*
X89567Y106299D02*
D03*
Y135827D02*
D03*
X128937Y106299D02*
D03*
Y135827D02*
D03*
D30*
X177165Y53839D02*
D03*
D31*
X187165Y91831D02*
D03*
X167165D02*
D03*
D32*
X217520Y90158D02*
D03*
X225394D02*
D03*
X221457Y98819D02*
D03*
X379921Y110630D02*
D03*
X383858Y101969D02*
D03*
X375984D02*
D03*
X442913Y72441D02*
D03*
X438976Y81102D02*
D03*
X446850D02*
D03*
D33*
X205709Y100787D02*
D03*
Y88189D02*
D03*
D34*
X208661Y175197D02*
D03*
D35*
X193543D02*
D03*
D36*
X619685Y140551D02*
D03*
X603937D02*
D03*
Y150787D02*
D03*
X619685D02*
D03*
M02*
