G04*
G04 #@! TF.GenerationSoftware,Altium Limited,Altium Designer,18.0.12 (696)*
G04*
G04 Layer_Color=8388736*
%FSLAX25Y25*%
%MOIN*%
G70*
G01*
G75*
%ADD37R,0.08465X0.08661*%
%ADD38R,0.08661X0.08465*%
%ADD39R,0.03950X0.04343*%
%ADD40R,0.05721X0.01902*%
%ADD41R,0.01902X0.05721*%
%ADD42R,0.20485X0.22060*%
%ADD43R,0.08674X0.10642*%
%ADD44R,0.02965X0.04737*%
%ADD45R,0.09855X0.06706*%
%ADD46R,0.03162X0.07099*%
%ADD47R,0.10249X0.07099*%
%ADD48R,0.03162X0.06784*%
%ADD49R,0.18517X0.22060*%
%ADD50R,0.04540X0.05328*%
%ADD51R,0.03359X0.06115*%
%ADD52R,0.06312X0.18517*%
%ADD53R,0.43320X0.46076*%
%ADD54R,0.06115X0.14973*%
%ADD55R,0.04737X0.06312*%
%ADD56R,0.06706X0.05524*%
%ADD57R,0.05328X0.04540*%
%ADD58R,0.06115X0.03359*%
%ADD59R,0.08674X0.06312*%
%ADD60C,0.07887*%
%ADD61C,0.10642*%
%ADD62R,0.07887X0.07887*%
%ADD63C,0.00800*%
D37*
X257480Y164311D02*
D03*
D38*
X202618Y175197D02*
D03*
D39*
X161400Y134357D02*
D03*
Y141443D02*
D03*
X585000Y142457D02*
D03*
Y149543D02*
D03*
X576000Y142457D02*
D03*
Y149543D02*
D03*
X56102Y137205D02*
D03*
Y144291D02*
D03*
X43307Y144291D02*
D03*
Y137205D02*
D03*
X574803Y84252D02*
D03*
Y91339D02*
D03*
X584646Y91339D02*
D03*
Y84252D02*
D03*
X621260Y74409D02*
D03*
Y67323D02*
D03*
X645669Y113779D02*
D03*
Y106693D02*
D03*
X635827Y106693D02*
D03*
Y113779D02*
D03*
X622047Y122441D02*
D03*
Y129528D02*
D03*
X604331Y122441D02*
D03*
Y129528D02*
D03*
X593701Y142126D02*
D03*
Y149213D02*
D03*
X629921Y142126D02*
D03*
Y149213D02*
D03*
X481102Y35039D02*
D03*
Y27953D02*
D03*
X473228Y35039D02*
D03*
Y27953D02*
D03*
X465354Y50787D02*
D03*
Y43701D02*
D03*
X545276Y57480D02*
D03*
Y64567D02*
D03*
X535433Y57480D02*
D03*
Y64567D02*
D03*
X555118Y82283D02*
D03*
Y75197D02*
D03*
X545276Y82283D02*
D03*
Y75197D02*
D03*
X535433Y75197D02*
D03*
Y82284D02*
D03*
X257874Y110630D02*
D03*
Y117717D02*
D03*
X248031Y110630D02*
D03*
Y117717D02*
D03*
X238189D02*
D03*
Y110630D02*
D03*
X228346Y117717D02*
D03*
Y110630D02*
D03*
X228346Y134252D02*
D03*
Y141339D02*
D03*
Y157874D02*
D03*
Y164961D02*
D03*
X238189Y164961D02*
D03*
Y157874D02*
D03*
X248031Y164961D02*
D03*
Y157874D02*
D03*
X167323Y107677D02*
D03*
Y114764D02*
D03*
X202756Y114567D02*
D03*
Y121653D02*
D03*
X202756Y134646D02*
D03*
Y141732D02*
D03*
X171260Y134252D02*
D03*
Y141339D02*
D03*
X152000Y141543D02*
D03*
Y134457D02*
D03*
X403543Y80315D02*
D03*
Y73228D02*
D03*
X473228Y59449D02*
D03*
Y66535D02*
D03*
X393701Y107874D02*
D03*
Y100787D02*
D03*
X481102Y59449D02*
D03*
Y66535D02*
D03*
X285433Y73228D02*
D03*
Y80315D02*
D03*
X344488Y73228D02*
D03*
Y80315D02*
D03*
X393701Y80315D02*
D03*
Y73228D02*
D03*
X334646Y80315D02*
D03*
Y73228D02*
D03*
X275590Y80315D02*
D03*
Y73228D02*
D03*
X383858Y73228D02*
D03*
Y80315D02*
D03*
X324803Y73228D02*
D03*
Y80315D02*
D03*
X265748Y73228D02*
D03*
Y80315D02*
D03*
X545276Y149213D02*
D03*
Y142126D02*
D03*
X555118Y142126D02*
D03*
Y149213D02*
D03*
D40*
X627063Y87598D02*
D03*
Y89567D02*
D03*
Y91535D02*
D03*
Y93504D02*
D03*
Y95473D02*
D03*
Y97441D02*
D03*
Y99410D02*
D03*
Y101378D02*
D03*
Y103347D02*
D03*
Y105315D02*
D03*
Y107283D02*
D03*
Y109252D02*
D03*
X593409D02*
D03*
Y107283D02*
D03*
Y105315D02*
D03*
Y103347D02*
D03*
Y101378D02*
D03*
Y99410D02*
D03*
Y97441D02*
D03*
Y95472D02*
D03*
Y93504D02*
D03*
Y91535D02*
D03*
Y89567D02*
D03*
Y87598D02*
D03*
D41*
X599409Y81598D02*
D03*
X601378D02*
D03*
X603346D02*
D03*
X605315D02*
D03*
X607283D02*
D03*
X609252D02*
D03*
X611221D02*
D03*
X613189D02*
D03*
X615158D02*
D03*
X617126D02*
D03*
X619095D02*
D03*
X621063D02*
D03*
X599409Y115252D02*
D03*
X601378D02*
D03*
X603346D02*
D03*
X605315D02*
D03*
X607283D02*
D03*
X609252D02*
D03*
X611221D02*
D03*
X613189D02*
D03*
X615158D02*
D03*
X617126D02*
D03*
X619095D02*
D03*
X621063D02*
D03*
D42*
X74803Y57087D02*
D03*
X124016D02*
D03*
D43*
X143701Y65945D02*
D03*
Y81693D02*
D03*
D44*
X473425Y42126D02*
D03*
X477165D02*
D03*
X473425Y52362D02*
D03*
X477165D02*
D03*
X480905D02*
D03*
Y42126D02*
D03*
D45*
X557480Y39370D02*
D03*
X521260D02*
D03*
D46*
X552559Y131890D02*
D03*
X547559D02*
D03*
X542559D02*
D03*
X537559D02*
D03*
X532559D02*
D03*
X527559D02*
D03*
X522559D02*
D03*
X517559D02*
D03*
Y92520D02*
D03*
X522559D02*
D03*
X527559D02*
D03*
X532559D02*
D03*
X537559D02*
D03*
X542559D02*
D03*
X547559D02*
D03*
X552559D02*
D03*
D47*
X336221Y178740D02*
D03*
Y166929D02*
D03*
D48*
X257500Y126929D02*
D03*
X252500D02*
D03*
X247500D02*
D03*
X242500D02*
D03*
Y148661D02*
D03*
X247500D02*
D03*
X252500D02*
D03*
X257500D02*
D03*
X179508Y138819D02*
D03*
X184508D02*
D03*
X189508D02*
D03*
X194508D02*
D03*
Y117087D02*
D03*
X189508D02*
D03*
X184508D02*
D03*
X179508D02*
D03*
D49*
X318110Y153150D02*
D03*
X273622D02*
D03*
D50*
X257480Y158268D02*
D03*
D51*
Y173386D02*
D03*
D52*
X89567Y106299D02*
D03*
Y135827D02*
D03*
X128937Y106299D02*
D03*
Y135827D02*
D03*
D53*
X177165Y53839D02*
D03*
D54*
X187165Y91831D02*
D03*
X167165D02*
D03*
D55*
X217520Y90158D02*
D03*
X225394D02*
D03*
X221457Y98819D02*
D03*
X379921Y110630D02*
D03*
X383858Y101969D02*
D03*
X375984D02*
D03*
X442913Y72441D02*
D03*
X438976Y81102D02*
D03*
X446850D02*
D03*
D56*
X205709Y100787D02*
D03*
Y88189D02*
D03*
D57*
X208661Y175197D02*
D03*
D58*
X193543D02*
D03*
D59*
X619685Y140551D02*
D03*
X603937D02*
D03*
Y150787D02*
D03*
X619685D02*
D03*
D60*
X24685Y143425D02*
D03*
Y133425D02*
D03*
Y123425D02*
D03*
Y113425D02*
D03*
Y103425D02*
D03*
Y93425D02*
D03*
Y83425D02*
D03*
Y73425D02*
D03*
Y63425D02*
D03*
Y53425D02*
D03*
X14685Y143425D02*
D03*
Y133425D02*
D03*
Y123425D02*
D03*
Y113425D02*
D03*
Y103425D02*
D03*
Y93425D02*
D03*
Y83425D02*
D03*
Y73425D02*
D03*
Y63425D02*
D03*
Y53425D02*
D03*
X462598Y100984D02*
D03*
Y179724D02*
D03*
X348819Y135039D02*
D03*
X226378Y50197D02*
D03*
X42323Y169291D02*
D03*
X200787Y157480D02*
D03*
X53228Y114567D02*
D03*
X43228Y84567D02*
D03*
X53228Y64567D02*
D03*
X607362Y47244D02*
D03*
X597362D02*
D03*
X587362D02*
D03*
X683976Y53425D02*
D03*
Y63425D02*
D03*
Y73425D02*
D03*
Y83425D02*
D03*
Y93425D02*
D03*
Y103425D02*
D03*
Y113425D02*
D03*
Y123425D02*
D03*
Y133425D02*
D03*
Y143425D02*
D03*
X693976Y53425D02*
D03*
Y63425D02*
D03*
Y73425D02*
D03*
Y83425D02*
D03*
Y93425D02*
D03*
Y103425D02*
D03*
Y113425D02*
D03*
Y123425D02*
D03*
Y133425D02*
D03*
Y143425D02*
D03*
X383858Y174409D02*
D03*
Y144488D02*
D03*
D61*
X159606Y175197D02*
D03*
X139606D02*
D03*
X444331Y41339D02*
D03*
X424331D02*
D03*
X404331D02*
D03*
X384331D02*
D03*
X364331D02*
D03*
X344331D02*
D03*
X324331D02*
D03*
X304331D02*
D03*
X284331D02*
D03*
X264331D02*
D03*
D62*
X617362Y47244D02*
D03*
D63*
X688976Y19685D02*
D03*
Y177165D02*
D03*
X19685D02*
D03*
Y19685D02*
D03*
M02*
