M48
;Layer_Color=9474304
;FILE_FORMAT=2:4
INCH,TZ
;TYPE=PLATED
T1F00S00C0.0120
T2F00S00C0.0295
T3F00S00C0.0394
T4F00S00C0.0402
T5F00S00C0.0591
;TYPE=NON_PLATED
T6F00S00C0.1181
%
T01
X60866Y6063
X60591Y6417
X60512Y6968
X60315Y7283
X60079Y7677
X59724
X61102Y7520
X61260Y7047
X61496Y6535
X58868Y8199
X58425Y8110
X58002Y8100
X52165Y7362
X49016Y6102
X38858Y7047
X37756Y8071
X32992Y7008
X27008Y6969
X12205Y9350
X6693Y10630
Y12677
X3839Y14764
X591Y15197
X3839Y9350
X14500Y13000
X16150Y12700
X17126Y12717
X19961Y12992
X20787Y14528
X21063Y16575
X21929
X21555Y10532
X19685Y10236
X14800Y15200
X39498Y11378
X44685Y11043
X44282Y14508
X44291Y18622
X54006Y13848
X57600Y12900
X58500Y13252
X58356Y11850
X58041Y11526
X57697Y11348
X58002Y9518
X58878Y9163
X59289Y8278
X59439Y11860
X52165Y10906
X60354Y10295
X60837Y10236
X60778Y9754
X61457Y10079
X61880Y10512
X60906Y11024
X61732Y12165
X61535Y12441
X61811Y12638
X59852Y12293
X59961Y9449
X60197Y9055
X60433Y8760
X65906Y8622
X65157Y11811
X64055Y12874
T02
X5323Y6457
X4323Y8457
X5323Y11457
T03
X22638Y5020
X4232Y16929
X20079Y15748
X34882Y13504
X38386Y14449
Y17441
X46260Y17972
Y10098
T04
X59736Y4724
X60736
X61736
X68398Y5343
Y6343
Y7343
X69398
Y6343
Y5343
X58736Y4724
X2468Y5343
Y6343
Y7343
X1469
Y6343
Y5343
Y8343
X2468
Y9343
Y10343
Y11343
Y12343
Y13343
Y14343
X1469
Y13343
Y12343
Y11343
Y10343
Y9343
X68398
Y8343
X69398
Y9343
Y10343
X68398
Y11343
Y12343
Y13343
Y14343
X69398
Y13343
Y12343
Y11343
T05
X44433Y4134
X42433
X40433
X38433
X36433
X34433
X32433
X30433
X28433
X26433
X15961Y17520
X13961
T06
X68898Y1969
X1969
Y17717
X68898
M30
