G04*
G04 #@! TF.GenerationSoftware,Altium Limited,Altium Designer,18.0.12 (696)*
G04*
G04 Layer_Color=16711935*
%FSLAX25Y25*%
%MOIN*%
G70*
G01*
G75*
%ADD60C,0.07887*%
%ADD61C,0.10642*%
%ADD62R,0.07887X0.07887*%
%ADD63C,0.00800*%
D60*
X24685Y143425D02*
D03*
Y133425D02*
D03*
Y123425D02*
D03*
Y113425D02*
D03*
Y103425D02*
D03*
Y93425D02*
D03*
Y83425D02*
D03*
Y73425D02*
D03*
Y63425D02*
D03*
Y53425D02*
D03*
X14685Y143425D02*
D03*
Y133425D02*
D03*
Y123425D02*
D03*
Y113425D02*
D03*
Y103425D02*
D03*
Y93425D02*
D03*
Y83425D02*
D03*
Y73425D02*
D03*
Y63425D02*
D03*
Y53425D02*
D03*
X462598Y100984D02*
D03*
Y179724D02*
D03*
X348819Y135039D02*
D03*
X226378Y50197D02*
D03*
X42323Y169291D02*
D03*
X200787Y157480D02*
D03*
X53228Y114567D02*
D03*
X43228Y84567D02*
D03*
X53228Y64567D02*
D03*
X607362Y47244D02*
D03*
X597362D02*
D03*
X587362D02*
D03*
X683976Y53425D02*
D03*
Y63425D02*
D03*
Y73425D02*
D03*
Y83425D02*
D03*
Y93425D02*
D03*
Y103425D02*
D03*
Y113425D02*
D03*
Y123425D02*
D03*
Y133425D02*
D03*
Y143425D02*
D03*
X693976Y53425D02*
D03*
Y63425D02*
D03*
Y73425D02*
D03*
Y83425D02*
D03*
Y93425D02*
D03*
Y103425D02*
D03*
Y113425D02*
D03*
Y123425D02*
D03*
Y133425D02*
D03*
Y143425D02*
D03*
X383858Y174409D02*
D03*
Y144488D02*
D03*
D61*
X159606Y175197D02*
D03*
X139606D02*
D03*
X444331Y41339D02*
D03*
X424331D02*
D03*
X404331D02*
D03*
X384331D02*
D03*
X364331D02*
D03*
X344331D02*
D03*
X324331D02*
D03*
X304331D02*
D03*
X284331D02*
D03*
X264331D02*
D03*
D62*
X617362Y47244D02*
D03*
D63*
X688976Y19685D02*
D03*
Y177165D02*
D03*
X19685D02*
D03*
Y19685D02*
D03*
M02*
